<?xml version="1.0" encoding="UTF-8"?>
<svg version="1.1" xmlns="http://www.w3.org/2000/svg" width="1024" height="1024">
<path d="M0 0 C33.57413882 27.85463908 46.92051103 67.38016395 51.13647461 109.87304688 C55.84396241 167.59635276 48.61753449 226.86275112 22.87084961 279.19580078 C22.25669189 280.46665527 22.25669189 280.46665527 21.63012695 281.76318359 C12.45844114 300.61084034 0.89238823 317.6246447 -13.12915039 333.19580078 C-13.60562012 333.73253418 -14.08208984 334.26926758 -14.57299805 334.82226562 C-37.23593537 360.30780272 -64.91604843 379.19264502 -96.19165039 392.69580078 C-96.96508789 393.03450195 -97.73852539 393.37320312 -98.53540039 393.72216797 C-103.44897094 395.77658546 -107.81756467 396.76170978 -113.12915039 397.19580078 C-111.58375657 393.04962224 -108.8881755 391.26338013 -105.37915039 388.69580078 C-100.23212645 384.85823597 -95.25613489 380.87173457 -90.37915039 376.69580078 C-89.77103516 376.17953125 -89.16291992 375.66326172 -88.53637695 375.13134766 C-85.39678806 372.52495149 -85.39678806 372.52495149 -83.12915039 369.19580078 C-82.46915039 369.19580078 -81.80915039 369.19580078 -81.12915039 369.19580078 C-80.74049805 368.29474609 -80.74049805 368.29474609 -80.34399414 367.37548828 C-79.02379321 365.00676765 -77.82633161 363.96286325 -75.69165039 362.32080078 C-58.21705249 347.46897255 -46.0656178 324.15499308 -37.38623047 303.29760742 C-36.20463423 300.48274312 -35.31067518 298.37732557 -33.12915039 296.19580078 C-32.35959535 294.21854987 -31.65906981 292.21392285 -31.00415039 290.19580078 C-30.65094727 289.12330078 -30.29774414 288.05080078 -29.93383789 286.94580078 C-29.03553789 284.3534346 -29.03553789 284.3534346 -29.12915039 282.19580078 C-29.59063477 283.16517578 -30.05211914 284.13455078 -30.52758789 285.13330078 C-37.41721761 299.38083974 -45.54075495 312.59333167 -55.12915039 325.19580078 C-55.95286133 326.29214844 -55.95286133 326.29214844 -56.79321289 327.41064453 C-65.67767758 339.05308286 -75.36264517 349.76024267 -85.74487305 360.07226562 C-87.63445486 361.95107501 -89.51302944 363.84041932 -91.39086914 365.73095703 C-98.33233855 372.67998641 -105.40596819 379.11567316 -113.12915039 385.19580078 C-114.15719111 386.05860472 -115.1806055 386.92701148 -116.19555664 387.80517578 C-130.27629262 399.88067393 -145.76776415 410.03637406 -161.20727539 420.26611328 C-173.18653642 428.20441166 -185.09301201 436.15783834 -196.35571289 445.09423828 C-198.72711813 446.89116225 -201.04281809 448.31107513 -203.62915039 449.75830078 C-215.78570071 457.70595338 -223.5041147 473.24708002 -229.12915039 486.19580078 C-229.54680664 487.14712891 -229.96446289 488.09845703 -230.39477539 489.07861328 C-239.17817689 511.03711702 -237.62136826 536.27073564 -228.97680664 558.04345703 C-220.20393208 578.5038306 -206.57396812 594.89925563 -188.12915039 607.19580078 C-188.12915039 608.18580078 -188.12915039 609.17580078 -188.12915039 610.19580078 C-193.94090795 609.64009488 -198.72176762 608.00102811 -204.06665039 605.69580078 C-204.9000293 605.33760254 -205.7334082 604.9794043 -206.59204102 604.61035156 C-224.09243292 596.9297721 -241.34145033 586.62581723 -254.61914062 572.72338867 C-256.30420847 570.96337523 -256.30420847 570.96337523 -259.12915039 568.75830078 C-262.90114203 565.53639126 -265.97477846 562.0148871 -269.12915039 558.19580078 C-269.96704102 557.19548828 -270.80493164 556.19517578 -271.66821289 555.16455078 C-284.5271635 539.51846109 -294.07628028 521.89984289 -299.94165039 502.50830078 C-300.23422729 501.54827148 -300.23422729 501.54827148 -300.53271484 500.56884766 C-309.21461133 470.02327801 -305.29522743 435.53901412 -290.29248047 407.67895508 C-283.59707097 395.78735837 -275.43653138 385.14566889 -266.12915039 375.19580078 C-264.89350484 373.80569954 -263.66392955 372.4101692 -262.44165039 371.00830078 C-261.87575195 370.36376953 -261.30985352 369.71923828 -260.72680664 369.05517578 C-259.71310188 367.87541181 -258.71824616 366.6789694 -257.75024414 365.46142578 C-254.00581374 360.81022449 -249.6611424 357.24445744 -245.00415039 353.52392578 C-239.28585205 348.89334723 -233.81541615 343.97778259 -228.69165039 338.69580078 C-225.08722698 335.02400497 -221.10906773 331.88358857 -217.10180664 328.66455078 C-213.38574301 325.57841121 -209.87102377 322.30695054 -206.34277344 319.01025391 C-203.75740457 316.61631524 -201.18221112 314.40644056 -198.25415039 312.44580078 C-195.10667996 310.17962207 -192.97404044 307.88035982 -190.53930664 304.90673828 C-185.34111262 298.59978819 -185.34111262 298.59978819 -181.12915039 297.19580078 C-180.07846673 295.33457133 -180.07846673 295.33457133 -179.12915039 293.19580078 C-178.19320795 291.91311644 -177.21276008 290.66177873 -176.19165039 289.44580078 C-175.68762695 288.83220703 -175.18360352 288.21861328 -174.66430664 287.58642578 C-173.12915039 286.19580078 -173.12915039 286.19580078 -170.12915039 286.19580078 C-169.88293945 285.31279297 -169.63672852 284.42978516 -169.38305664 283.52001953 C-168.05599357 280.00185544 -166.49674205 277.85296344 -164.06665039 275.00830078 C-161.0113358 271.44029531 -161.0113358 271.44029531 -159.12915039 267.19580078 C-159.68602539 267.82486328 -160.24290039 268.45392578 -160.81665039 269.10205078 C-163.2366033 271.81632229 -165.6788043 274.50894977 -168.12915039 277.19580078 C-168.71696289 277.85193359 -169.30477539 278.50806641 -169.91040039 279.18408203 C-176.23041009 285.89191051 -183.76034241 291.22146997 -191.13012695 296.70507812 C-192.8233746 297.96777599 -194.50494018 299.246116 -196.18383789 300.52783203 C-210.09298933 310.9906507 -226.9953389 321.24316659 -245.12915039 319.19580078 C-257.5615613 315.95086334 -264.48447366 308.02991441 -271.75537109 298.04931641 C-279.12360237 287.99456711 -285.93292659 283.54377281 -298.06665039 280.44580078 C-317.96565128 278.82139255 -334.71332377 285.09926985 -352.12915039 294.19580078 C-352.78915039 294.52580078 -353.44915039 294.85580078 -354.12915039 295.19580078 C-354.78915039 294.86580078 -355.44915039 294.53580078 -356.12915039 294.19580078 C-354.50999088 283.64673122 -341.36010145 273.87428081 -333.25170898 267.78613281 C-320.95467313 258.87666094 -307.6882062 251.95687887 -294.12915039 245.19580078 C-293.44782043 244.85597168 -292.76649048 244.51614258 -292.06451416 244.16601562 C-288.23841547 242.25835425 -284.41153395 240.35226451 -280.5847168 238.44604492 C-279.79881165 238.05450226 -279.01290649 237.66295959 -278.20318604 237.259552 C-276.61362769 236.46778113 -275.02390625 235.67633762 -273.434021 234.88522339 C-262.81053244 229.59598941 -252.28752798 224.2063759 -242.00756836 218.26953125 C-240.03043429 217.13937325 -238.03775284 216.04169996 -236.03930664 214.94970703 C-226.72079495 209.84144623 -217.84292888 204.27656269 -209.12915039 198.19580078 C-208.40937012 197.69532227 -207.68958984 197.19484375 -206.94799805 196.67919922 C-196.50686074 189.38276613 -186.61146935 181.69876551 -177.12915039 173.19580078 C-176.58500488 172.71336914 -176.04085937 172.2309375 -175.48022461 171.73388672 C-147.37639471 146.79184252 -125.88681306 112.80674028 -120.78738403 75.16067505 C-120.49538549 73.00612787 -120.18510896 70.85481103 -119.87109375 68.70336914 C-118.97024411 62.48348926 -118.12537371 56.25814326 -117.35961914 50.02001953 C-114.72316451 28.88650375 -108.59714855 8.88277719 -92.12915039 -5.80419922 C-88.275553 -8.46549559 -84.30912054 -10.69951664 -80.12915039 -12.80419922 C-78.95352539 -13.40232422 -77.77790039 -14.00044922 -76.56665039 -14.61669922 C-50.61812366 -23.58073572 -21.14015606 -16.75531147 0 0 Z M-149.12915039 177.19580078 C-149.12915039 178.51580078 -149.12915039 179.83580078 -149.12915039 181.19580078 C-150.11915039 181.69080078 -150.11915039 181.69080078 -151.12915039 182.19580078 C-148.15915039 183.18580078 -145.18915039 184.17580078 -142.12915039 185.19580078 C-143.10443776 183.85962726 -144.08448358 182.52692568 -145.06665039 181.19580078 C-145.88456055 180.08205078 -145.88456055 180.08205078 -146.71899414 178.94580078 C-147.41702148 178.07955078 -147.41702148 178.07955078 -148.12915039 177.19580078 C-148.45915039 177.19580078 -148.78915039 177.19580078 -149.12915039 177.19580078 Z M-158.12915039 185.19580078 C-161.45865542 189.00094939 -163.46915902 191.48918776 -163.44165039 196.63330078 C-163.33852539 197.80892578 -163.23540039 198.98455078 -163.12915039 200.19580078 C-163.78915039 199.86580078 -164.44915039 199.53580078 -165.12915039 199.19580078 C-167.27850438 199.18060241 -167.27850438 199.18060241 -169.62915039 199.44580078 C-170.82024414 199.54634766 -170.82024414 199.54634766 -172.03540039 199.64892578 C-174.51050877 200.04757239 -174.51050877 200.04757239 -176.12915039 203.19580078 C-175.24227539 203.56705078 -174.35540039 203.93830078 -173.44165039 204.32080078 C-169.54515155 206.52636616 -167.80284461 208.65708784 -165.12915039 212.19580078 C-162.41690421 210.58311386 -159.75562227 208.94678204 -157.12915039 207.19580078 C-157.12915039 206.53580078 -157.12915039 205.87580078 -157.12915039 205.19580078 C-156.63543945 205.35177734 -156.14172852 205.50775391 -155.63305664 205.66845703 C-151.44438923 206.55062567 -147.15371093 206.55669426 -142.88500977 206.71337891 C-139.15686301 206.89684388 -137.30309807 207.07983566 -134.12915039 209.19580078 C-133.44165039 211.82080078 -133.44165039 211.82080078 -133.12915039 214.19580078 C-130.11340769 213.1558895 -129.14923988 212.22665249 -127.37915039 209.50830078 C-125.94527137 205.70852138 -125.61637137 203.22477878 -126.12915039 199.19580078 C-128.17779168 195.35459837 -129.52469074 194.38734556 -133.69165039 193.06689453 C-138.35633187 191.99357212 -142.86419156 191.96991403 -147.62915039 192.07080078 C-148.45157227 192.07982422 -149.27399414 192.08884766 -150.12133789 192.09814453 C-152.12407122 192.12143213 -154.12665193 192.1572912 -156.12915039 192.19580078 C-156.12915039 189.88580078 -156.12915039 187.57580078 -156.12915039 185.19580078 C-156.78915039 185.19580078 -157.44915039 185.19580078 -158.12915039 185.19580078 Z M-179.12915039 204.19580078 C-182.69098509 208.53678683 -183.6260354 211.75695359 -183.95336914 217.34033203 C-184.12915039 219.19580078 -184.12915039 219.19580078 -185.12915039 220.19580078 C-185.62415039 219.86580078 -186.11915039 219.53580078 -186.62915039 219.19580078 C-190.14933752 217.78772593 -193.42471444 217.61276096 -197.12915039 218.19580078 C-201.55064149 220.3894066 -201.55064149 220.3894066 -204.00415039 224.44580078 C-204.04540039 225.02330078 -204.08665039 225.60080078 -204.12915039 226.19580078 C-203.42790039 225.92767578 -202.72665039 225.65955078 -202.00415039 225.38330078 C-199.12915039 225.19580078 -199.12915039 225.19580078 -196.31665039 226.82080078 C-191.03142233 231.66559317 -186.37601868 239.45519592 -184.12915039 246.19580078 C-183.89964219 252.73678439 -183.89964219 252.73678439 -185.12915039 255.19580078 C-180.86242655 254.72172035 -178.88364559 252.31272956 -176.12915039 249.19580078 C-173.4154079 245.44825163 -173.98744133 241.65963604 -174.12915039 237.19580078 C-174.12915039 236.20580078 -174.12915039 235.21580078 -174.12915039 234.19580078 C-173.63286133 234.49615234 -173.13657227 234.79650391 -172.62524414 235.10595703 C-169.01231938 237.12837222 -166.71862814 238.19580078 -162.50415039 238.19580078 C-157.59798265 236.74212145 -153.41188012 234.16963151 -150.12915039 230.19580078 C-149.12418187 227.18089521 -149.02579736 225.15398386 -149.06665039 222.00830078 C-149.07567383 221.10724609 -149.08469727 220.20619141 -149.09399414 219.27783203 C-149.1055957 218.59076172 -149.11719727 217.90369141 -149.12915039 217.19580078 C-151.45465219 218.10001743 -151.45465219 218.10001743 -152.50415039 221.13330078 C-154.12915039 224.19580078 -154.12915039 224.19580078 -155.94165039 225.63330078 C-159.24982842 226.48397513 -160.86148655 226.3490939 -164.12915039 225.19580078 C-166.13294809 223.20873625 -167.87788922 221.13491701 -169.61352539 218.91064453 C-170.11368164 218.34474609 -170.61383789 217.77884766 -171.12915039 217.19580078 C-171.78915039 217.19580078 -172.44915039 217.19580078 -173.12915039 217.19580078 C-174.8776471 212.89180888 -176.50618649 208.54829488 -178.12915039 204.19580078 C-178.45915039 204.19580078 -178.78915039 204.19580078 -179.12915039 204.19580078 Z M-149.12915039 214.19580078 C-147.14915039 216.83580078 -145.16915039 219.47580078 -143.12915039 222.19580078 C-142.46915039 220.87580078 -141.80915039 219.55580078 -141.12915039 218.19580078 C-140.13915039 217.86580078 -139.14915039 217.53580078 -138.12915039 217.19580078 C-141.75915039 216.20580078 -145.38915039 215.21580078 -149.12915039 214.19580078 Z M-239.12915039 222.19580078 C-241.42552819 224.95475713 -241.42552819 224.95475713 -240.87915039 227.75830078 C-240.29106987 230.34580645 -240.29106987 230.34580645 -238.12915039 232.19580078 C-234.36951697 232.69708524 -232.59490029 232.47525072 -229.31665039 230.50830078 C-226.9257571 227.98078502 -226.41375799 226.61109192 -226.12915039 223.19580078 C-231.82636788 218.52116079 -232.3279356 218.97417272 -239.12915039 222.19580078 Z M-209.12915039 226.19580078 C-210.40225351 227.13021614 -211.67253839 228.06847189 -212.94165039 229.00830078 C-214.00319336 229.79140625 -214.00319336 229.79140625 -215.08618164 230.59033203 C-216.91446432 232.02708955 -218.52811727 233.51395841 -220.12915039 235.19580078 C-219.37230957 235.59347656 -218.61546875 235.99115234 -217.83569336 236.40087891 C-214.90315617 238.34567535 -213.65843127 239.94215842 -211.82446289 242.91455078 C-211.24051758 243.84783203 -210.65657227 244.78111328 -210.05493164 245.74267578 C-209.46067383 246.71720703 -208.86641602 247.69173828 -208.25415039 248.69580078 C-207.66762695 249.63939453 -207.08110352 250.58298828 -206.47680664 251.55517578 C-205.29038888 253.46387425 -204.10842777 255.37535001 -202.9309082 257.28955078 C-200.5336679 261.15631888 -198.07290173 264.98111685 -195.60522461 268.80322266 C-194.12915039 271.19580078 -194.12915039 271.19580078 -192.12915039 275.19580078 C-187.17915039 272.22580078 -182.22915039 269.25580078 -177.12915039 266.19580078 C-178.44915039 265.86580078 -179.76915039 265.53580078 -181.12915039 265.19580078 C-182.11915039 264.86580078 -183.10915039 264.53580078 -184.12915039 264.19580078 C-185.367822 261.58082739 -186.21419022 258.94068129 -187.12915039 256.19580078 C-187.70922852 255.63248047 -188.28930664 255.06916016 -188.88696289 254.48876953 C-191.8363081 251.47262731 -193.82861228 248.1045388 -196.00415039 244.50830078 C-196.88609097 243.07547206 -197.76889949 241.64317721 -198.65258789 240.21142578 C-199.28825684 239.17791992 -199.28825684 239.17791992 -199.93676758 238.12353516 C-201.46869118 235.6468626 -203.03378687 233.1945702 -204.62915039 230.75830078 C-205.07258789 230.07896484 -205.51602539 229.39962891 -205.97290039 228.69970703 C-207.0735124 227.04174501 -207.0735124 227.04174501 -209.12915039 226.19580078 Z M-228.12915039 237.07080078 C-229.01602539 237.60447266 -229.90290039 238.13814453 -230.81665039 238.68798828 C-233.19868535 240.12792818 -233.19868535 240.12792818 -235.12915039 242.19580078 C-233.98796753 242.779021 -233.98796753 242.779021 -232.82373047 243.37402344 C-229.75481532 245.4488848 -228.71297211 247.08201329 -227.01586914 250.34423828 C-226.49057617 251.34970703 -225.9652832 252.35517578 -225.42407227 253.39111328 C-224.89362305 254.44041016 -224.36317383 255.48970703 -223.81665039 256.57080078 C-223.26686523 257.61236328 -222.71708008 258.65392578 -222.15063477 259.72705078 C-217.7770864 268.22423047 -217.7770864 268.22423047 -218.12915039 273.19580078 C-212.6498225 271.65034933 -208.01485858 269.04036866 -203.12915039 266.19580078 C-204.02802979 265.12471069 -204.02802979 265.12471069 -204.94506836 264.03198242 C-207.00056406 261.36277903 -208.53699496 258.80600471 -210.07446289 255.81689453 C-210.59395508 254.81335938 -211.11344727 253.80982422 -211.64868164 252.77587891 C-212.17848633 251.73882812 -212.70829102 250.70177734 -213.25415039 249.63330078 C-213.79168945 248.59238281 -214.32922852 247.55146484 -214.88305664 246.47900391 C-216.98875225 242.39626491 -219.08170847 238.30809688 -221.12915039 234.19580078 C-224.02911984 234.19580078 -225.66718844 235.57501576 -228.12915039 237.07080078 Z M-250.12915039 248.19580078 C-250.12915039 248.85580078 -250.12915039 249.51580078 -250.12915039 250.19580078 C-249.36731445 250.28087891 -248.60547852 250.36595703 -247.82055664 250.45361328 C-243.71565455 251.58558918 -242.70770432 254.02888109 -240.55493164 257.52783203 C-236.77485626 264.60123335 -234.41003499 271.14170832 -235.12915039 279.19580078 C-235.45915039 280.18580078 -235.78915039 281.17580078 -236.12915039 282.19580078 C-231.71976824 281.69187139 -229.34071223 280.23376468 -226.12915039 277.19580078 C-223.38480197 272.66332291 -223.54533958 268.34919252 -224.12915039 263.19580078 C-225.99253237 255.75234521 -228.68350251 249.45594256 -235.00415039 244.82080078 C-241.19311771 243.00051628 -245.22484648 244.12881705 -250.12915039 248.19580078 Z M-256.12915039 250.19580078 C-259.06606814 251.41978603 -259.06606814 251.41978603 -262.25415039 253.13330078 C-263.89770508 253.98214844 -263.89770508 253.98214844 -265.57446289 254.84814453 C-266.41750977 255.29287109 -267.26055664 255.73759766 -268.12915039 256.19580078 C-267.25274902 256.94337646 -267.25274902 256.94337646 -266.35864258 257.70605469 C-263.51737661 260.87898836 -262.10586412 264.13835812 -260.45727539 268.03173828 C-260.12999451 268.78871002 -259.80271362 269.54568176 -259.46551514 270.32559204 C-258.77845461 271.92220296 -258.09627519 273.52092215 -257.41870117 275.12158203 C-256.38288976 277.56199069 -255.32554532 279.99223814 -254.26586914 282.42236328 C-253.59918401 283.97909007 -252.93377625 285.53636466 -252.26977539 287.09423828 C-251.95421692 287.81630463 -251.63865845 288.53837097 -251.3135376 289.28231812 C-249.58215812 293.42317744 -248.76893803 296.61967011 -249.12915039 301.19580078 C-243.66177848 299.44772949 -238.37090191 297.53785997 -233.12915039 295.19580078 C-233.12915039 294.53580078 -233.12915039 293.87580078 -233.12915039 293.19580078 C-234.11915039 292.86580078 -235.10915039 292.53580078 -236.12915039 292.19580078 C-237.33569336 290.10498047 -237.33569336 290.10498047 -238.49633789 287.36767578 C-238.9265625 286.37058594 -239.35678711 285.37349609 -239.80004883 284.34619141 C-240.23865234 283.3065625 -240.67725586 282.26693359 -241.12915039 281.19580078 C-241.98434867 279.24198671 -242.84110221 277.2888526 -243.69946289 275.33642578 C-244.55197695 273.37329707 -245.40353753 271.40975402 -246.25415039 269.44580078 C-246.6834082 268.45708984 -247.11266602 267.46837891 -247.55493164 266.44970703 C-247.97387695 265.48419922 -248.39282227 264.51869141 -248.82446289 263.52392578 C-249.22310547 262.60804688 -249.62174805 261.69216797 -250.0324707 260.74853516 C-250.71381105 259.16258354 -251.38231772 257.57097393 -252.03051758 255.97119141 C-253.28326731 252.41341263 -253.28326731 252.41341263 -256.12915039 250.19580078 Z " fill="#151515" transform="translate(669.129150390625,214.80419921875)"/>
<path d="M0 0 C0.66 0 1.32 0 2 0 C1.67 9.24 1.34 18.48 1 28 C-0.32 27.67 -1.64 27.34 -3 27 C-3.495 26.01 -3.495 26.01 -4 25 C-15.82482831 20.79870806 -31.59786186 22.88352276 -44 23 C-44.78282648 24.79199472 -44.78282648 24.79199472 -45 27 C-43.9778226 29.29986595 -43.9778226 29.29986595 -42 31 C-39.63905354 31.73054456 -39.63905354 31.73054456 -36.94921875 31.828125 C-35.94632813 31.90562988 -34.9434375 31.98313477 -33.91015625 32.06298828 C-32.84667969 32.12470215 -31.78320312 32.18641602 -30.6875 32.25 C-29.60984375 32.32589355 -28.5321875 32.40178711 -27.421875 32.47998047 C-19.60822314 32.99706037 -11.83006533 33.24813587 -4 33 C-3.67 32.01 -3.34 31.02 -3 30 C-2.01 30 -1.02 30 0 30 C-0.33 39.24 -0.66 48.48 -1 58 C-1.66 58 -2.32 58 -3 58 C-3.18175781 59.67835938 -3.18175781 59.67835938 -3.3671875 61.390625 C-5.46431467 78.03611523 -10.28123276 96.05701752 -18 111 C-19.485 110.505 -19.485 110.505 -21 110 C-21.0825 109.38125 -21.165 108.7625 -21.25 108.125 C-21.84463126 105.64354388 -21.84463126 105.64354388 -24.97705078 104.5703125 C-29.30776347 102.82689103 -33.70762646 101.28046375 -38.1171875 99.75 C-38.9737796 99.45061523 -39.8303717 99.15123047 -40.71292114 98.84277344 C-42.51605937 98.21304684 -44.31960486 97.58448527 -46.12353516 96.95703125 C-48.86055149 96.00502557 -51.59639797 95.0497218 -54.33203125 94.09375 C-56.09368276 93.47897395 -57.8553994 92.86438451 -59.6171875 92.25 C-60.82699783 91.82799316 -60.82699783 91.82799316 -62.06124878 91.39746094 C-64.37261313 90.59372679 -66.68594019 89.79593668 -69 89 C-69.81462708 88.71680908 -70.62925415 88.43361816 -71.46856689 88.1418457 C-72.26414001 87.86945068 -73.05971313 87.59705566 -73.87939453 87.31640625 C-74.94772018 86.94817749 -74.94772018 86.94817749 -76.03762817 86.57250977 C-79.79441916 85.47648938 -82.78359551 85.48782969 -86.375 87 C-87.179375 87.495 -87.179375 87.495 -88 88 C-89.64684668 84.70630663 -87.78649958 81.5738036 -86.6875 78.25 C-86.46126953 77.54617188 -86.23503906 76.84234375 -86.00195312 76.1171875 C-84.69637294 72.06876019 -83.350851 68.03352693 -82 64 C-81.34 64 -80.68 64 -80 64 C-80.3403125 62.7934375 -80.3403125 62.7934375 -80.6875 61.5625 C-81.10230764 56.83369291 -80.14020803 53.22257261 -78 49 C-75.13188477 46.36443465 -73.81519117 45.98336345 -69.9375 46.0625 C-66.53543748 47.14826464 -65.13494785 48.15340287 -63 51 C-61.16767493 55.27542517 -62.59047134 58.73891844 -64.09765625 62.90625 C-65.10265 65.23818354 -66.28590884 67.12266207 -68 69 C-65.03 69.99 -62.06 70.98 -59 72 C-57.45136655 67.718484 -56.51847636 63.62933451 -55.875 59.125 C-55.70742188 57.97257812 -55.53984375 56.82015625 -55.3671875 55.6328125 C-55.18542969 54.32957031 -55.18542969 54.32957031 -55 53 C-54.01 52.67 -53.02 52.34 -52 52 C-52 45.4 -52 38.8 -52 32 C-50.68 31.67 -49.36 31.34 -48 31 C-48.495 30.0925 -48.99 29.185 -49.5 28.25 C-51.86200854 22.70097515 -52.42620987 15.64242814 -50.203125 9.96484375 C-47.95153171 6.44023425 -45.42554256 4.3465024 -41.34130859 3.35375977 C-37.36364863 2.93262654 -33.51715901 3.08264996 -29.5390625 3.33984375 C-28.74849457 3.38565079 -27.95792664 3.43145782 -27.1434021 3.47865295 C-24.63684899 3.62532501 -22.13097355 3.78126784 -19.625 3.9375 C-17.91800518 4.03902587 -16.21097409 4.13994373 -14.50390625 4.24023438 C-10.33548477 4.48645552 -6.16764548 4.74098841 -2 5 C-1.34 3.35 -0.68 1.7 0 0 Z M-48 52 C-44.90721133 53.69782303 -41.95430829 54.61994768 -38.52734375 55.4375 C-37.46193359 55.69273437 -36.39652344 55.94796875 -35.29882812 56.2109375 C-33.6349707 56.60152344 -33.6349707 56.60152344 -31.9375 57 C-30.85533203 57.26039063 -29.77316406 57.52078125 -28.65820312 57.7890625 C-21.80582096 59.41686294 -14.94318117 60.8186255 -8 62 C-6.68 60.35 -5.36 58.7 -4 57 C-4.79117904 55.00016466 -4.79117904 55.00016466 -6 53 C-9.598202 51.80059933 -13.05405724 51.62289529 -16.80859375 51.39453125 C-17.57172379 51.34681076 -18.33485382 51.29909027 -19.12110901 51.24992371 C-20.73400252 51.15106452 -22.34704114 51.05454873 -23.96020508 50.96020508 C-26.42546341 50.81321766 -28.88931744 50.65001725 -31.35351562 50.48632812 C-32.9218151 50.39222555 -34.49017323 50.29909429 -36.05859375 50.20703125 C-36.79411972 50.15609818 -37.52964569 50.1051651 -38.28746033 50.0526886 C-42.07335834 49.85008702 -44.79588264 49.84155172 -48 52 Z M-54 72 C-54.33 72.66 -54.66 73.32 -55 74 C-53.79053711 74.43082886 -53.79053711 74.43082886 -52.55664062 74.87036133 C-49.52976028 75.94893737 -46.50309278 77.02810809 -43.4765625 78.10766602 C-42.17326046 78.57241812 -40.86987686 79.03694159 -39.56640625 79.5012207 C-37.67946645 80.17337065 -35.7928561 80.84644522 -33.90625 81.51953125 C-32.70685791 81.94733887 -31.50746582 82.37514648 -30.27172852 82.81591797 C-27.60306975 83.78174104 -24.95384074 84.7811892 -22.30859375 85.80859375 C-18.94899335 87.01836721 -16.53944117 87.34531133 -13 87 C-11.73527935 85.94570314 -11.73527935 85.94570314 -11.75 83.5625 C-11.8325 82.716875 -11.915 81.87125 -12 81 C-16.68256565 77.87828957 -22.12465787 77.11528449 -27.54931641 75.85839844 C-29.59967145 75.38089867 -31.64541503 74.88644329 -33.69140625 74.390625 C-40.5681469 72.76157554 -46.91608467 71.57777988 -54 72 Z " fill="#010101" transform="translate(550,193)"/>
<path d="M0 0 C5.82142439 3.00964517 10.67270135 7.11791947 15 12 C15 12.66 15 13.32 15 14 C15.56976563 14.22558594 16.13953125 14.45117188 16.7265625 14.68359375 C20.51210815 16.87556778 22.85564451 20.42294032 25.5859375 23.78515625 C29.16077616 27.06498396 32.31143133 27 37 27 C37 30 37 30 35.53125 31.54296875 C34.8609375 32.08566406 34.190625 32.62835938 33.5 33.1875 C25.79399913 39.28260863 25.79399913 39.28260863 20 47 C19.01 47 18.02 47 17 47 C16.90976562 46.10152344 16.81953125 45.20304687 16.7265625 44.27734375 C15.5757596 39.08635646 12.19710604 36.3070892 8.55126953 32.59082031 C6.77143019 30.76560264 5.02622499 28.90957498 3.27734375 27.0546875 C1.95730647 25.68077447 0.63569002 24.30837694 -0.6875 22.9375 C-1.31672363 22.26984619 -1.94594727 21.60219238 -2.59423828 20.91430664 C-6.22027462 17.22575243 -8.5631295 15.14197665 -14 15 C-14.84059636 17.68990836 -15.27236422 19.2501689 -15 22 C-13.1300789 25.1058621 -10.59062727 27.48556765 -8 30 C-6.18609558 31.7902448 -4.37362062 33.58193899 -2.5625 35.375 C-1.69753906 36.20773437 -0.83257812 37.04046875 0.05859375 37.8984375 C2 40 2 40 2 42 C2.5775 42.2475 3.155 42.495 3.75 42.75 C6 44 6 44 7.875 46.125 C9.93642897 48.32321149 9.93642897 48.32321149 13.25 48.25 C14.1575 48.1675 15.065 48.085 16 48 C14.60652624 51.15204981 12.97514921 53.26171773 10.5234375 55.671875 C9.853125 56.33574219 9.1828125 56.99960937 8.4921875 57.68359375 C7.44417969 58.70646484 7.44417969 58.70646484 6.375 59.75 C5.66859375 60.44738281 4.9621875 61.14476562 4.234375 61.86328125 C2.49401297 63.58012488 0.74915019 65.29211832 -1 67 C-2.485 66.505 -2.485 66.505 -4 66 C-4.1026416 65.25242432 -4.2052832 64.50484863 -4.31103516 63.73461914 C-5.0686455 60.72753428 -5.93661053 59.49526949 -8.0234375 57.24609375 C-8.65475586 56.56015137 -9.28607422 55.87420898 -9.93652344 55.16748047 C-10.6174707 54.45221191 -11.29841797 53.73694336 -12 53 C-12.68868164 52.26797363 -13.37736328 51.53594727 -14.08691406 50.78173828 C-16.24293388 48.51796667 -18.42906934 46.28752868 -20.625 44.0625 C-21.36234375 43.29615234 -22.0996875 42.52980469 -22.859375 41.74023438 C-23.93832031 40.6487207 -23.93832031 40.6487207 -25.0390625 39.53515625 C-25.68053223 38.879104 -26.32200195 38.22305176 -26.98291016 37.54711914 C-29.34013954 35.73911108 -31.06167327 35.27486773 -34 35 C-35.26254923 36.0763491 -35.26254923 36.0763491 -35.5 38.5625 C-34.95763223 42.2912784 -34.44189684 42.98011075 -32.00390625 45.65625 C-31.36791504 46.3562915 -30.73192383 47.05633301 -30.07666016 47.77758789 C-29.3913623 48.51098389 -28.70606445 49.24437988 -28 50 C-27.31599121 50.73404053 -26.63198242 51.46808105 -25.92724609 52.22436523 C-23.78798807 54.48663429 -21.61767647 56.71468896 -19.4375 58.9375 C-18.70853516 59.70384766 -17.97957031 60.47019531 -17.22851562 61.25976562 C-12.98168619 65.63318137 -12.98168619 65.63318137 -7.47265625 68.00390625 C-6.65667969 68.00261719 -5.84070313 68.00132812 -5 68 C-5.57981463 71.61555118 -6.93419533 73.31923352 -9.4921875 75.890625 C-10.19730469 76.59960938 -10.90242188 77.30859375 -11.62890625 78.0390625 C-12.37011719 78.76867187 -13.11132812 79.49828125 -13.875 80.25 C-14.60847656 80.99507813 -15.34195313 81.74015625 -16.09765625 82.5078125 C-16.80535156 83.21164062 -17.51304687 83.91546875 -18.2421875 84.640625 C-18.8904248 85.28547852 -19.53866211 85.93033203 -20.20654297 86.59472656 C-22 88 -22 88 -25 88 C-24.5359375 86.7625 -24.5359375 86.7625 -24.0625 85.5 C-23.99121926 81.50827883 -24.29432613 81.22461492 -26.85546875 78.4375 C-27.49605225 77.73818359 -28.13663574 77.03886719 -28.79663086 76.31835938 C-32.90213132 71.99859955 -37.04826203 67.72630953 -41.25 63.5 C-42.1471875 62.5821875 -43.044375 61.664375 -43.96875 60.71875 C-44.82984375 59.8525 -45.6909375 58.98625 -46.578125 58.09375 C-47.35575195 57.30677734 -48.13337891 56.51980469 -48.93457031 55.70898438 C-50.93842991 53.68125342 -50.93842991 53.68125342 -54 54 C-53.64518555 54.50466797 -53.29037109 55.00933594 -52.92480469 55.52929688 C-47.82037107 62.96538536 -43.69691077 70.84703769 -39.50390625 78.8203125 C-38.95089844 79.85929687 -38.39789063 80.89828125 -37.828125 81.96875 C-37.3321582 82.91169922 -36.83619141 83.85464844 -36.32519531 84.82617188 C-35.18553636 87.12845007 -35.18553636 87.12845007 -33 88 C-32.505 86.515 -32.505 86.515 -32 85 C-31.01 85.495 -31.01 85.495 -30 86 C-30.56373887 89.47263143 -31.60850967 90.91317065 -34.3125 93.125 C-34.90675781 93.62257813 -35.50101562 94.12015625 -36.11328125 94.6328125 C-40.20758775 97.59970127 -42.92833272 98.21581563 -48 98 C-48.99 98 -49.98 98 -51 98 C-51.515625 99.0725 -52.03125 100.145 -52.5625 101.25 C-54.91820578 105.32495772 -57.54454797 107.47267466 -62 109 C-66.3270966 109.81185371 -69.417968 109.30179437 -73.375 107.25 C-76.3915998 104.66434303 -77.72098553 102.78439489 -78.3359375 98.8515625 C-78.43258975 93.34238439 -77.57594278 90.41734108 -74 86 C-73.34 85.01 -72.68 84.02 -72 83 C-71.34 83 -70.68 83 -70 83 C-69.731875 82.4225 -69.46375 81.845 -69.1875 81.25 C-68 79 -68 79 -66.3125 77.0625 C-64.79867169 75.09107709 -64.79867169 75.09107709 -65 72.75 C-66.65906847 68.1875617 -68.83829594 63.37865904 -73.02734375 60.70703125 C-75.05325687 59.7376582 -75.05325687 59.7376582 -77.25 60.875 C-77.8275 61.24625 -78.405 61.6175 -79 62 C-78.50628906 62.33773437 -78.01257813 62.67546875 -77.50390625 63.0234375 C-76.54291016 63.69246094 -76.54291016 63.69246094 -75.5625 64.375 C-74.60537109 65.03628906 -74.60537109 65.03628906 -73.62890625 65.7109375 C-71.10518176 67.70812955 -70.99526548 69.03077435 -70.5 72.25 C-71.03089874 76.23174052 -71.34878456 76.88277488 -74.125 79.5 C-76.81811861 81.53480072 -77.71537353 81.98883818 -81.1875 82.125 C-84.98038576 80.6078457 -87.17212616 78.65574769 -89 75 C-89.41559013 71.34280686 -89.18617748 69.36459757 -87.5 66.0625 C-81.20390625 58.34978515 -73.09780008 51.86917353 -62.81640625 50.765625 C-61.20957274 50.80709167 -59.60423825 50.89973511 -58 51 C-55.64630193 50.11935073 -55.64630193 50.11935073 -54 49 C-54 48.34 -54 47.68 -54 47 C-53.34 47 -52.68 47 -52 47 C-51.73445313 46.41734375 -51.46890625 45.8346875 -51.1953125 45.234375 C-49.96697004 42.93825772 -48.59685061 41.19643982 -46.875 39.25 C-46.33617187 38.63640625 -45.79734375 38.0228125 -45.2421875 37.390625 C-44.83226562 36.93171875 -44.42234375 36.4728125 -44 36 C-42.68 36.66 -41.36 37.32 -40 38 C-39.84144531 37.40832031 -39.68289063 36.81664062 -39.51953125 36.20703125 C-37.94731375 30.88233883 -36.42277301 27.59993152 -32 24 C-31.05125 23.21625 -30.1025 22.4325 -29.125 21.625 C-25.25284488 19.61147934 -23.17077189 19.99901475 -19 21 C-19.103125 20.01 -19.20625 19.02 -19.3125 18 C-19.30256376 13.0914977 -17.01257185 9.73245914 -14 6 C-9.64429492 1.6868935 -6.26995228 -0.79799393 0 0 Z M-62 77 C-63.83096707 82.69048759 -64.49505867 86.83896259 -61.9921875 92.3984375 C-61.02467093 94.16627457 -61.02467093 94.16627457 -59 95.5625 C-56.80883384 96.22052993 -56.80883384 96.22052993 -54 95 C-52.57130493 91.85579781 -52.57130493 91.85579781 -54.65234375 88.42578125 C-55.40387723 87.04907832 -56.1660567 85.67814591 -56.9375 84.3125 C-57.32357422 83.61060547 -57.70964844 82.90871094 -58.10742188 82.18554688 C-59.06261773 80.45204328 -60.03015386 78.72534991 -61 77 C-61.33 77 -61.66 77 -62 77 Z " fill="#020202" transform="translate(468,330)"/>
<path d="M0 0 C0.99 0.33 1.98 0.66 3 1 C4.07495117 3.50024414 4.07495117 3.50024414 5.04296875 6.78515625 C5.39423828 7.95498047 5.74550781 9.12480469 6.10742188 10.33007812 C6.64206055 12.17762695 6.64206055 12.17762695 7.1875 14.0625 C7.55552734 15.29806641 7.92355469 16.53363281 8.30273438 17.80664062 C9.21287163 20.86801139 10.11138246 23.93232673 11 27 C12.07121094 25.59041016 12.07121094 25.59041016 13.1640625 24.15234375 C16.89824152 19.68367984 21.4262567 18.2973368 27 17 C31.33072078 16.93014966 33.15972697 17.413763 36.6875 19.875 C42.72518718 28.03403673 44.69837972 39.44457922 47.44335938 49.09765625 C47.73146484 50.07605469 48.01957031 51.05445313 48.31640625 52.0625 C48.56849854 52.94035156 48.82059082 53.81820312 49.08032227 54.72265625 C50.06487488 57.16064584 50.90525434 58.4227189 53 60 C53.99 60 54.98 60 56 60 C56 60.99 56 61.98 56 63 C51.87887083 64.3661521 47.75254756 65.71587637 43.625 67.0625 C42.449375 67.45244141 41.27375 67.84238281 40.0625 68.24414062 C38.94101562 68.60830078 37.81953125 68.97246094 36.6640625 69.34765625 C35.10872803 69.85824585 35.10872803 69.85824585 33.52197266 70.37915039 C31 71 31 71 29 70 C29.495 68.515 29.495 68.515 30 67 C30.66 67 31.32 67 32 67 C29.27033093 56.21418372 26.33947731 45.54664658 22.88037109 34.96948242 C21 29.18947108 21 29.18947108 21 27 C18.06556598 27.26656572 18.06556598 27.26656572 15 28 C12.78176692 30.67881548 12.78176692 30.67881548 13.1081543 33.00805664 C14.7404899 40.23330934 16.6874059 47.34184681 18.8125 54.4375 C19.14314453 55.60732422 19.47378906 56.77714844 19.81445312 57.98242188 C20.15025391 59.10068359 20.48605469 60.21894531 20.83203125 61.37109375 C21.12827393 62.38099365 21.4245166 63.39089355 21.72973633 64.43139648 C23.28342733 67.57311914 24.89358169 68.49153482 28 70 C27 72 27 72 24.73095703 72.88549805 C21.53134546 73.82846125 18.33172004 74.7689275 15.125 75.6875 C14.00996094 76.02072266 12.89492188 76.35394531 11.74609375 76.69726562 C10.67746094 77.00728516 9.60882813 77.31730469 8.5078125 77.63671875 C7.52441895 77.92248779 6.54102539 78.20825684 5.52783203 78.50268555 C3 79 3 79 0 78 C0.49612793 77.59362305 0.99225586 77.18724609 1.50341797 76.76855469 C3.1719126 75.13040106 3.1719126 75.13040106 3.21923828 73.02050781 C2.30976324 65.32644627 0.1788655 58.13181168 -2.125 50.75 C-2.53062886 49.42826868 -2.93556917 48.10632587 -3.33984375 46.78417969 C-4.54608788 42.85174469 -5.77150977 38.92554358 -7 35 C-7.36061523 33.84371094 -7.72123047 32.68742187 -8.09277344 31.49609375 C-9.60950057 26.64372363 -11.1364524 21.79464276 -12.6875 16.953125 C-12.91824219 16.23286133 -13.14898437 15.51259766 -13.38671875 14.77050781 C-13.98232174 12.92716699 -13.98232174 12.92716699 -15 11 C-17.52733235 10.34444881 -17.52733235 10.34444881 -20 10 C-20 9.01 -20 8.02 -20 7 C-19.19780029 6.73521851 -19.19780029 6.73521851 -18.37939453 6.46508789 C-15.96074202 5.66579184 -13.54286513 4.86417455 -11.125 4.0625 C-10.28324219 3.78470703 -9.44148438 3.50691406 -8.57421875 3.22070312 C-7.76855469 2.95322266 -6.96289062 2.68574219 -6.1328125 2.41015625 C-5.38918457 2.16402588 -4.64555664 1.91789551 -3.87939453 1.66430664 C-1.94577687 1.02437575 -1.94577687 1.02437575 0 0 Z " fill="#010101" transform="translate(339,381)"/>
<path d="M0 0 C7.7860988 4.84356016 14.47422737 9.91504924 17.5234375 18.828125 C18.85551084 24.89888548 17.26579403 30.5372779 14.37890625 35.90625 C12.72208981 38.42198261 10.82591776 40.64313573 8.875 42.9375 C5.0051601 47.57699207 3.76825225 51.04604509 3 57 C-0.48743922 58.22366288 -0.48743922 58.22366288 -2.71875 57.25 C-3.60046875 56.63125 -3.60046875 56.63125 -4.5 56 C-12.83349615 50.43922959 -21.49799544 45.66774726 -30.49169922 41.27783203 C-37.19637874 37.97547982 -43.70017241 34.32566687 -50.17382812 30.59277344 C-55.13689841 27.79181302 -59.50376042 25.35595587 -65.375 26.4375 C-65.91125 26.623125 -66.4475 26.80875 -67 27 C-66.3588072 24.09325931 -65.43337318 21.57468666 -64.15234375 18.890625 C-63.79462891 18.13652344 -63.43691406 17.38242187 -63.06835938 16.60546875 C-62.50858398 15.43951172 -62.50858398 15.43951172 -61.9375 14.25 C-61.56044922 13.45722656 -61.18339844 12.66445313 -60.79492188 11.84765625 C-59.86654161 9.89688254 -58.93370456 7.94823094 -58 6 C-54.24936435 6.5866753 -51.440724 7.64940008 -48.13671875 9.50390625 C-47.25048828 9.99697266 -46.36425781 10.49003906 -45.45117188 10.99804688 C-44.53916016 11.51431641 -43.62714844 12.03058594 -42.6875 12.5625 C-41.75615234 13.08263672 -40.82480469 13.60277344 -39.86523438 14.13867188 C-37.57336205 15.41976974 -35.28518387 16.70702105 -33 18 C-32.95174072 17.32888184 -32.90348145 16.65776367 -32.85375977 15.96630859 C-32.77955811 15.07766113 -32.70535645 14.18901367 -32.62890625 13.2734375 C-32.56002197 12.39606934 -32.4911377 11.51870117 -32.42016602 10.61474609 C-31.61049578 5.57606615 -29.23786596 1.69274477 -25.171875 -1.3828125 C-16.55643004 -6.23324017 -8.46675649 -4.11865255 0 0 Z M-27 12 C-29.23994243 14.79870939 -29.23994243 14.79870939 -29.125 17.875 C-27.90310254 21.2691596 -27.61105619 21.54494274 -24.6953125 23.2734375 C-23.9739209 23.70221191 -23.2525293 24.13098633 -22.50927734 24.57275391 C-17.61900404 27.35428122 -12.69748727 30.07161577 -7.75 32.75 C-6.67492187 33.33910156 -5.59984375 33.92820312 -4.4921875 34.53515625 C-2.94144531 35.37626953 -2.94144531 35.37626953 -1.359375 36.234375 C-0.42577148 36.74194336 0.50783203 37.24951172 1.46972656 37.77246094 C3.7078119 38.85824761 5.53009812 39.72107491 8 40 C10.25945217 38.08628938 10.25945217 38.08628938 10.75 34.9375 C10.58767226 31.02540136 8.74502357 29.22462018 6 26.5625 C-1.77828052 20.06390798 -13.9748066 12.68874445 -24.1875 11.6875 C-25.5796875 11.8421875 -25.5796875 11.8421875 -27 12 Z " fill="#010101" transform="translate(508,292)"/>
<path d="M0 0 C2.80194238 0.33944236 3.84794698 0.83499924 5.7890625 2.94140625 C7.89048755 5.94152584 9.97606072 8.94719057 12 12 C12.67264893 13.00909424 12.67264893 13.00909424 13.35888672 14.03857422 C14.7764458 16.18223584 16.17313424 18.33797425 17.5625 20.5 C18.01641113 21.19424072 18.47032227 21.88848145 18.93798828 22.60375977 C20.04021822 24.35371618 21.0301235 26.17336434 22 28 C21.67 28.99 21.34 29.98 21 31 C20.01 30.34 19.02 29.68 18 29 C17.18184814 28.90638184 16.36369629 28.81276367 15.52075195 28.71630859 C13 28 13 28 11.23901367 25.63916016 C10.72056885 24.61612793 10.20212402 23.5930957 9.66796875 22.5390625 C9.09755859 21.42789062 8.52714844 20.31671875 7.93945312 19.171875 C7.07223633 17.41617187 7.07223633 17.41617187 6.1875 15.625 C5.2912793 13.88089844 5.2912793 13.88089844 4.37695312 12.1015625 C0 3.45770536 0 3.45770536 0 0 Z " fill="#0F0F0F" transform="translate(449,450)"/>
<path d="M0 0 C3.1875 -0.5 3.1875 -0.5 7 0 C8.29467773 1.4934082 8.29467773 1.4934082 9.43359375 3.48828125 C9.85584229 4.21547363 10.27809082 4.94266602 10.71313477 5.69189453 C11.13780029 6.45356934 11.56246582 7.21524414 12 8 C12.41499756 8.71655762 12.82999512 9.43311523 13.25756836 10.17138672 C14.49421522 12.32775454 15.68825035 14.50333412 16.875 16.6875 C17.29007812 17.42033203 17.70515625 18.15316406 18.1328125 18.90820312 C21.05534189 24.31001161 21.05534189 24.31001161 20.7578125 28.01953125 C20.50773437 28.67308594 20.25765625 29.32664062 20 30 C19.01 29.67 18.02 29.34 17 29 C16.67 28.34 16.34 27.68 16 27 C15.979375 28.216875 15.95875 29.43375 15.9375 30.6875 C15.62382814 33.44683218 15.34804585 34.6477709 13.375 36.64453125 C11.64434882 37.85528923 9.82561508 38.93782395 8 40 C8.33 40.66 8.66 41.32 9 42 C7.02 41.67 5.04 41.34 3 41 C3 41.99 3 42.98 3 44 C2.34 43.67 1.68 43.34 1 43 C1.2578125 41.12109375 1.2578125 41.12109375 2 39 C3.7421875 37.91015625 3.7421875 37.91015625 5.875 37.0625 C8.51988517 35.82537629 9.96898392 35.03295458 12 32.875 C14.89678922 24.54673098 12.63822605 16.73904442 9 9 C6.49062211 5.11451166 4.01292901 3.22940501 0 1 C0 0.67 0 0.34 0 0 Z " fill="#0A0A0A" transform="translate(431,458)"/>
<path d="M0 0 C0.99 0.33 1.98 0.66 3 1 C0.05264633 5.04454373 -3.23444061 7.91879031 -7.3125 10.75 C-7.92424072 11.17974121 -8.53598145 11.60948242 -9.16625977 12.05224609 C-15.90288162 16.72153124 -22.87829411 20.94821893 -30 25 C-30.59893066 25.34272949 -31.19786133 25.68545898 -31.81494141 26.03857422 C-39.32196263 30.29656155 -47.01206914 34.02117999 -54.9375 37.4375 C-55.71834961 37.77982666 -56.49919922 38.12215332 -57.30371094 38.47485352 C-62.25600523 40.55170739 -66.64358789 41.56734328 -72 42 C-70.60667426 38.63279613 -69.0210714 37.0140476 -66 35 C-64 36 -64 36 -63 38 C-59.97596365 36.75765407 -56.95641655 35.50473024 -53.9375 34.25 C-52.66616211 33.72792969 -52.66616211 33.72792969 -51.36914062 33.1953125 C-46.33403915 31.09573351 -41.69231851 28.77806584 -37 26 C-35.55659171 25.21671872 -34.1097604 24.43972316 -32.66015625 23.66796875 C-21.81014711 17.96067734 -21.81014711 17.96067734 -12.41015625 10.1796875 C-11 9 -11 9 -8 9 C-7.67 8.01 -7.34 7.02 -7 6 C-5.66666667 5.33333333 -4.33333333 4.66666667 -3 4 C-1.26574227 1.96682993 -1.26574227 1.96682993 0 0 Z " fill="#080808" transform="translate(628,570)"/>
<path d="M0 0 C0.66 0 1.32 0 2 0 C3.1577506 3.47325181 3.06866652 6.36067448 3 10 C5.5637264 10 6.83022576 9.3561089 9 8 C10.26804566 5.9664052 10.26804566 5.9664052 11 4 C12.61949011 6.57213134 13.04408751 7.67669159 12.625 10.75 C12.315625 11.86375 12.315625 11.86375 12 13 C11.01 13 10.02 13 9 13 C8.67 12.67 8.34 12.34 8 12 C8 12.99 8 13.98 8 15 C8.66 15.33 9.32 15.66 10 16 C9.67 16.33 9.34 16.66 9 17 C9.66 17 10.32 17 11 17 C9.5704918 21.64590164 9.5704918 21.64590164 7.1875 23.125 C5 23 5 23 2.3125 20.875 C0.02424641 18.03014419 -0.69404824 16.56943715 -1 13 C-1.99 12.67 -2.98 12.34 -4 12 C-5.75 9.5625 -5.75 9.5625 -7 7 C-6.67 6.34 -6.34 5.68 -6 5 C-3 8.75 -3 8.75 -3 11 C-0.792191 9.46172153 -0.792191 9.46172153 1 7 C0.85387105 3.30567489 0.85387105 3.30567489 0 0 Z M5 17 C4.34 17.66 3.68 18.32 3 19 C4.65 19 6.3 19 8 19 C7.01 18.34 6.02 17.68 5 17 Z " fill="#0F0F0F" transform="translate(483,458)"/>
<path d="M0 0 C0.66 1.65 1.32 3.3 2 5 C1.34 5 0.68 5 0 5 C0.66 6.32 1.32 7.64 2 9 C1.67 9 1.34 9 1 9 C0.95101562 9.61488281 0.90203125 10.22976563 0.8515625 10.86328125 C0.77679687 11.67152344 0.70203125 12.47976563 0.625 13.3125 C0.55539062 14.11300781 0.48578125 14.91351563 0.4140625 15.73828125 C0 18 0 18 -2 21 C-2.66 21 -3.32 21 -4 21 C-4.33 22.65 -4.66 24.3 -5 26 C-5.99 26 -6.98 26 -8 26 C-9.67099977 26.31088368 -11.33871537 26.64080332 -13 27 C-11.08292475 24.97642057 -9.05148752 23.23177252 -6.875 21.5 C-3.80308932 19.25656749 -3.80308932 19.25656749 -3 16 C-2.93259135 14.43881572 -2.91485544 12.8749748 -2.9375 11.3125 C-2.94652344 10.50425781 -2.95554687 9.69601562 -2.96484375 8.86328125 C-2.97644531 8.24839844 -2.98804688 7.63351562 -3 7 C-3.391875 7.928125 -3.78375 8.85625 -4.1875 9.8125 C-6.14877182 13.2616332 -7.43061004 14.39377452 -11 16 C-11.99 16 -12.98 16 -14 16 C-14 15.34 -14 14.68 -14 14 C-12.35 13.34 -10.7 12.68 -9 12 C-9.66 12 -10.32 12 -11 12 C-11 11.34 -11 10.68 -11 10 C-11.66 9.34 -12.32 8.68 -13 8 C-12.34 7.67 -11.68 7.34 -11 7 C-11 6.34 -11 5.68 -11 5 C-10.01 5 -9.02 5 -8 5 C-7.67 5.66 -7.34 6.32 -7 7 C-5.89163577 5.11683841 -5.89163577 5.11683841 -5 3 C-5.33 2.34 -5.66 1.68 -6 1 C-4 0 -4 0 0 0 Z " fill="#0C0C0C" transform="translate(522,426)"/>
<path d="M0 0 C0.85329541 3.09319586 1 5.79336115 1 9 C0.34 9.33 -0.32 9.66 -1 10 C-1.77601557 11.63624989 -2.46907327 13.31202073 -3.125 15 C-5.31694892 20.43734194 -7.69055556 25.75833322 -10.1875 31.0625 C-10.53248535 31.80048828 -10.8774707 32.53847656 -11.23291016 33.29882812 C-11.56210449 33.99556641 -11.89129883 34.69230469 -12.23046875 35.41015625 C-12.52332764 36.03027588 -12.81618652 36.65039551 -13.11791992 37.28930664 C-14 39 -14 39 -16 42 C-15.67 42.66 -15.34 43.32 -15 44 C-16.98 44.495 -16.98 44.495 -19 45 C-19.061875 45.556875 -19.12375 46.11375 -19.1875 46.6875 C-20.3384988 49.96341967 -22.52064935 51.57574603 -25 54 C-26.60404458 56.11120574 -28.1467177 58.25428568 -29.66796875 60.42578125 C-30.32732422 61.20501953 -30.32732422 61.20501953 -31 62 C-31.66 62 -32.32 62 -33 62 C-31.58013995 58.72464103 -29.5874791 56.0511215 -27.4206543 53.23046875 C-17.23737929 39.93043609 -9.81013576 25.66920989 -4 10 C-3.21426377 8.01847145 -2.42335332 6.03897888 -1.625 4.0625 C-1.14933594 2.87333984 -1.14933594 2.87333984 -0.6640625 1.66015625 C-0.33535156 0.83837891 -0.33535156 0.83837891 0 0 Z " fill="#090909" transform="translate(546,306)"/>
<path d="M0 0 C0.66 0.33 1.32 0.66 2 1 C-0.64 2.98 -3.28 4.96 -6 7 C-4.906875 6.938125 -3.81375 6.87625 -2.6875 6.8125 C1 7 1 7 2.875 8.3125 C4 10 4 10 5 13 C4.22265625 15.04296875 4.22265625 15.04296875 3.0625 17.1875 C2.68222656 17.90292969 2.30195313 18.61835938 1.91015625 19.35546875 C1.60980469 19.89816406 1.30945313 20.44085938 1 21 C0.01 20.67 -0.98 20.34 -2 20 C-1.319375 19.2575 -0.63875 18.515 0.0625 17.75 C2.20998306 15.26262397 2.20998306 15.26262397 2 12.8125 C1.08373324 10.9119904 1.08373324 10.9119904 -0.625 9.5625 C-4.38528032 8.67190729 -6.67528618 10.24696908 -10 12 C-11.88029239 13.53951047 -11.88029239 13.53951047 -13 15 C-13 13.68 -13 12.36 -13 11 C-15.98931167 11.4598941 -17.48615679 12.32741172 -20.0625 14.0625 C-23 16 -23 16 -26 16 C-26 15.34 -26 14.68 -26 14 C-22.33934534 11.97764579 -18.67317582 9.96580308 -15.00146484 7.96362305 C-13.75248774 7.2806344 -12.50508015 6.59476755 -11.25927734 5.90600586 C-9.47114668 4.918053 -7.67767803 3.94049479 -5.8828125 2.96484375 C-4.80402832 2.3730835 -3.72524414 1.78132324 -2.61376953 1.17163086 C-1.75122559 0.78499268 -0.88868164 0.39835449 0 0 Z M-3 20 C-2.67 20.66 -2.34 21.32 -2 22 C-2.99 21.67 -3.98 21.34 -5 21 C-4.34 20.67 -3.68 20.34 -3 20 Z " fill="#0B0B0B" transform="translate(440,426)"/>
<path d="M0 0 C5.51658831 1.57616809 9.92231424 3.92231424 14 8 C15.65261839 9.02304948 17.31791365 10.02616054 19 11 C18.67 11.99 18.34 12.98 18 14 C22.09947304 17.13706517 22.09947304 17.13706517 27 18 C26.835 18.78375 26.67 19.5675 26.5 20.375 C25.9376293 22.88208039 25.9376293 22.88208039 26 25 C26.99 25.66 27.98 26.32 29 27 C29 27.66 29 28.32 29 29 C30.65 28.67 32.3 28.34 34 28 C34 28.99 34 29.98 34 31 C34.66 31.33 35.32 31.66 36 32 C36 32.66 36 33.32 36 34 C27.99488436 31.57420738 23.09484466 25.20640975 18.5625 18.5625 C11.11489448 8.02967296 11.11489448 8.02967296 0 2 C0 1.34 0 0.68 0 0 Z " fill="#0C0C0C" transform="translate(380,496)"/>
<path d="M0 0 C2.96175123 0.61277612 4.38058783 1.25372522 7 3 C6.01 3.99 5.02 4.98 4 6 C4.44311523 6.38953857 4.88623047 6.77907715 5.34277344 7.18041992 C8.69527513 10.86135616 10.27639884 15.79384537 12.25 20.3125 C12.72179687 21.34568359 13.19359375 22.37886719 13.6796875 23.44335938 C14.12054688 24.44818359 14.56140625 25.45300781 15.015625 26.48828125 C15.42071289 27.40134033 15.82580078 28.31439941 16.24316406 29.25512695 C17.1416477 32.51372423 16.76613476 34.73973091 16 38 C15.34 38 14.68 38 14 38 C14.04125 37.2575 14.0825 36.515 14.125 35.75 C13.98998214 32.77960702 13.33903079 31.60367099 12 29 C11.24418158 26.34952866 10.62661165 23.68547851 10 21 C9.01 21.33 8.02 21.66 7 22 C7.1959375 21.42507813 7.391875 20.85015625 7.59375 20.2578125 C8.21287599 16.81690077 6.97981333 14.78394216 5.390625 11.7734375 C3.04976882 8.78818833 0.66037686 8.5631349 -3 8 C-1.25 4.125 -1.25 4.125 1 3 C0.67 2.01 0.34 1.02 0 0 Z " fill="#0C0C0C" transform="translate(399,466)"/>
<path d="M0 0 C0.66 0.99 1.32 1.98 2 3 C2.99 2.34 3.98 1.68 5 1 C5.99 1.33 6.98 1.66 8 2 C7.505 2.969375 7.01 3.93875 6.5 4.9375 C4.60142633 9.28728381 4.71410012 13.33030204 5 18 C4.175 17.505 3.35 17.01 2.5 16.5 C-1.47169137 14.79784655 -4.77142792 14.22895519 -9 15 C-11.56715548 16.1210074 -13.65320316 17.43546878 -16 19 C-16.33 17.68 -16.66 16.36 -17 15 C-13.25 13 -13.25 13 -11 13 C-10.01 12.67 -9.02 12.34 -8 12 C-6.60560336 11.93334624 -5.20830125 11.91461801 -3.8125 11.9375 C-1.9253125 11.9684375 -1.9253125 11.9684375 0 12 C0 8.04 0 4.08 0 0 Z " fill="#0D0D0D" transform="translate(481,419)"/>
<path d="M0 0 C1.32 0.33 2.64 0.66 4 1 C-3.94224633 8.72273701 -12.72685882 15.02813764 -21.75341797 21.40429688 C-23.88033315 22.91500298 -25.99166177 24.44468537 -28.09765625 25.984375 C-28.72768555 26.44271729 -29.35771484 26.90105957 -30.00683594 27.37329102 C-31.17276936 28.2218875 -32.33636128 29.07371483 -33.49707031 29.92944336 C-36.54617978 32.13173453 -39.44208405 33.77018432 -43 35 C-40.89169768 30.78339536 -39.41274376 29.50679055 -35 28 C-33.66209359 27.00612666 -32.32781878 26.0073108 -31 25 C-30.34 25 -29.68 25 -29 25 C-29 23.68 -29 22.36 -29 21 C-28.34 20.95875 -27.68 20.9175 -27 20.875 C-23.35033191 19.81051347 -21.15190689 18.02715384 -18.19921875 15.6875 C-15.19177785 13.37983664 -12.00126854 11.39701626 -8.78515625 9.39453125 C-6.70405173 8.03371719 -6.70405173 8.03371719 -6 5 C-4.35178756 3.96986723 -2.68496298 2.96885372 -1 2 C-0.67 1.34 -0.34 0.68 0 0 Z " fill="#090909" transform="translate(554,597)"/>
<path d="M0 0 C1.32 0 2.64 0 4 0 C2.34352661 4.29754095 -0.90067081 7.17066531 -4.109375 10.33984375 C-4.71380432 10.94381485 -5.31823364 11.54778595 -5.940979 12.1700592 C-7.21968106 13.44574438 -8.50080849 14.71900244 -9.78417969 15.98999023 C-11.73425401 17.92190068 -13.67629937 19.86159981 -15.6171875 21.80273438 C-16.86411441 23.04474179 -18.11149587 24.28629306 -19.359375 25.52734375 C-20.222211 26.38851051 -20.222211 26.38851051 -21.10247803 27.26707458 C-24.58841761 30.71284642 -28.04289677 34.09837984 -32 37 C-32.99 36.67 -33.98 36.34 -35 36 C-34 34 -34 34 -32.1875 33.1875 C-29.79019769 32.06936221 -29.79019769 32.06936221 -28 29.5 C-26 27 -26 27 -24.0859375 26.08203125 C-21.61113999 24.79828797 -20.37989427 23.34198288 -18.625 21.1875 C-16.50431083 18.67258015 -14.45529025 16.41662141 -11.875 14.375 C-8.73251806 11.77903666 -6.45247995 9.24592934 -4 6 C-4 5.34 -4 4.68 -4 4 C-2.68 3.34 -1.36 2.68 0 2 C0 1.34 0 0.68 0 0 Z " fill="#0A0A0A" transform="translate(593,559)"/>
<path d="M0 0 C0.66 0.33 1.32 0.66 2 1 C2 1.99 2 2.98 2 4 C1.278125 4.226875 0.55625 4.45375 -0.1875 4.6875 C-3.57355877 6.26766076 -5.46677659 8.27191325 -8 11 C-10 13 -12 15 -14 17 C-14.66 17 -15.32 17 -16 17 C-16.7734375 18.0209375 -16.7734375 18.0209375 -17.5625 19.0625 C-20.36241207 22.43675301 -23.45731134 24.76766048 -26.9765625 27.3515625 C-29.22460434 29.01761836 -29.22460434 29.01761836 -31 32 C-33.89062762 33.9017287 -36.8843659 35.49987988 -40 37 C-37.1237165 33.16495533 -34.17372185 30.24622627 -30.375 27.3125 C-26.48114205 24.2897125 -23.00603778 21.08978619 -19.5625 17.5625 C-15.06631971 12.96398844 -10.35493048 8.86203805 -5.3125 4.875 C-3.40983152 3.33229583 -1.68431438 1.77296251 0 0 Z " fill="#090909" transform="translate(458,538)"/>
<path d="M0 0 C2.375 -0.1875 2.375 -0.1875 5 0 C5.66 0.99 6.32 1.98 7 3 C6.01 4.32 5.02 5.64 4 7 C3.34 6.67 2.68 6.34 2 6 C2.33 5.34 2.66 4.68 3 4 C2.01 4 1.02 4 0 4 C0.66 5.65 1.32 7.3 2 9 C1.34 9 0.68 9 0 9 C0 9.66 0 10.32 0 11 C0.66 11 1.32 11 2 11 C1.67 11.66 1.34 12.32 1 13 C-1.32156597 13.40729228 -3.6568787 13.74438677 -6 14 C-5.67 12.68 -5.34 11.36 -5 10 C-5.99 10 -6.98 10 -8 10 C-8.33 8.68 -8.66 7.36 -9 6 C-6.525 6.495 -6.525 6.495 -4 7 C-4.33 6.67 -4.66 6.34 -5 6 C-4.71395102 4.32457024 -4.38218767 2.65614657 -4 1 C-2.68 1.33 -1.36 1.66 0 2 C0 1.34 0 0.68 0 0 Z " fill="#181818" transform="translate(511,427)"/>
<path d="M0 0 C0.78375 0.00451172 1.5675 0.00902344 2.375 0.01367188 C4.29170014 0.02535907 6.20836048 0.04329092 8.125 0.0625 C8.125 0.3925 8.125 0.7225 8.125 1.0625 C6.87847656 1.14886719 5.63195312 1.23523438 4.34765625 1.32421875 C-13.97764015 2.7625625 -28.73858948 7.353315 -44.875 16.0625 C-45.535 16.3925 -46.195 16.7225 -46.875 17.0625 C-47.535 16.7325 -48.195 16.4025 -48.875 16.0625 C-48.545 15.4025 -48.215 14.7425 -47.875 14.0625 C-46.92625 13.77375 -45.9775 13.485 -45 13.1875 C-41.57922234 11.95602004 -40.8277139 10.99157085 -38.875 8.0625 C-38.215 8.0625 -37.555 8.0625 -36.875 8.0625 C-36.875 7.4025 -36.875 6.7425 -36.875 6.0625 C-36.29991699 6.25183105 -35.72483398 6.44116211 -35.13232422 6.63623047 C-32.50934707 7.13154932 -31.24935865 6.77995397 -28.7578125 5.8828125 C-27.98566406 5.61339844 -27.21351563 5.34398437 -26.41796875 5.06640625 C-25.62003906 4.77636719 -24.82210938 4.48632812 -24 4.1875 C-15.79876636 1.25753235 -8.71542291 -0.09601737 0 0 Z " fill="#090909" transform="translate(361.875,492.9375)"/>
<path d="M0 0 C0.66 0.33 1.32 0.66 2 1 C0.15683845 2.94555941 -1.69508375 4.53401607 -3.83203125 6.17578125 C-7.24114066 9.01137149 -9.36208325 12.1841999 -11.5625 16 C-11.94672119 16.65427979 -12.33094238 17.30855957 -12.72680664 17.98266602 C-17.58197135 26.47177027 -20.93932604 35.4459662 -23 45 C-23.33 45 -23.66 45 -24 45 C-24.28825361 39.57239545 -23.40126937 35.25855749 -21.4375 30.25 C-21.16719971 29.55116699 -20.89689941 28.85233398 -20.6184082 28.13232422 C-16.71911698 18.4181438 -9.73526523 4.86763261 0 0 Z " fill="#070707" transform="translate(579,208)"/>
<path d="M0 0 C0.66 0.33 1.32 0.66 2 1 C-1.25179812 3.21713508 -4.4213696 5.34832443 -8 7 C-7.67 7.99 -7.34 8.98 -7 10 C-7.56847656 10.03738281 -8.13695312 10.07476562 -8.72265625 10.11328125 C-14.85165538 10.6351159 -20.47356757 11.47356757 -25 16 C-28.87272788 17.77038989 -32.90033106 18.87460068 -37 20 C-33.93260542 16.70699692 -30.3243588 14.93728149 -26.33984375 12.953125 C-25.59416641 12.57766541 -24.84848907 12.20220581 -24.08021545 11.81536865 C-22.50738267 11.02574672 -20.9329968 10.23921175 -19.35717773 9.45556641 C-16.93788419 8.25019142 -14.52644661 7.03003887 -12.11523438 5.80859375 C-10.58639005 5.04336601 -9.05710782 4.27901241 -7.52734375 3.515625 C-6.80336899 3.14802063 -6.07939423 2.78041626 -5.33348083 2.40167236 C-3.58469991 1.53950871 -1.79507188 0.76110304 0 0 Z " fill="#0A0A0A" transform="translate(407,444)"/>
<path d="M0 0 C3.74204134 4.19410003 5.85844159 8.58823531 8.0625 13.6875 C8.41248047 14.48824951 8.76246094 15.28899902 9.12304688 16.11401367 C15.215876 30.26894084 15.215876 30.26894084 15 38 C14.505 36.515 14.505 36.515 14 35 C12.515 35.495 12.515 35.495 11 36 C11 35.34 11 34.68 11 34 C10.34 34 9.68 34 9 34 C9 33.34 9 32.68 9 32 C9.99 32 10.98 32 12 32 C11.5504955 30.68445015 11.09010284 29.37261642 10.625 28.0625 C10.36976563 27.33160156 10.11453125 26.60070312 9.8515625 25.84765625 C9.14728587 23.81317884 9.14728587 23.81317884 7 23 C7.33 22.01 7.66 21.02 8 20 C7.60602665 17.36195411 7.60602665 17.36195411 7 15 C6.34 15 5.68 15 5 15 C4.80664062 14.38511719 4.61328125 13.77023437 4.4140625 13.13671875 C4.15367187 12.32847656 3.89328125 11.52023437 3.625 10.6875 C3.36976563 9.88699219 3.11453125 9.08648437 2.8515625 8.26171875 C2.01168189 5.77275472 2.01168189 5.77275472 0 3 C0 2.01 0 1.02 0 0 Z " fill="#0B0B0B" transform="translate(697,248)"/>
<path d="M0 0 C0.33 0 0.66 0 1 0 C0.42659849 6.88081806 -1.40246272 12.98003923 -3.625 19.5 C-3.97965332 20.5506665 -4.33430664 21.60133301 -4.69970703 22.68383789 C-6.87869987 29.02929389 -9.20365902 35.28236292 -11.875 41.4375 C-12.16068848 42.09878906 -12.44637695 42.76007813 -12.74072266 43.44140625 C-14.73760235 47.86880117 -14.73760235 47.86880117 -17 49 C-15.34479529 43.83159588 -13.54727415 38.76339057 -11.5546875 33.71484375 C-11.11769531 32.60689453 -10.68070313 31.49894531 -10.23046875 30.35742188 C-9.3244217 28.07141556 -8.41292966 25.78756007 -7.49609375 23.50585938 C-5.16041748 17.55577605 -3.54633972 12.35939433 -3 6 C-1.4375 2.5 -1.4375 2.5 0 0 Z " fill="#090909" transform="translate(709,442)"/>
<path d="M0 0 C0.99 0.33 1.98 0.66 3 1 C1.37039536 4.7606261 -1.0369202 7.59302341 -3.625 10.75 C-8.10736643 16.36010336 -11.39173585 22.19684012 -14.39892578 28.70605469 C-17.19037992 34.71449865 -17.19037992 34.71449865 -20 37 C-19.67 35.68 -19.34 34.36 -19 33 C-19.66 33 -20.32 33 -21 33 C-20.06030492 30.90375712 -19.28564088 29.26659815 -17.59375 27.6875 C-15.60939313 25.58641625 -14.56202559 23.41286407 -13.3125 20.8125 C-12.87550781 19.91144531 -12.43851562 19.01039063 -11.98828125 18.08203125 C-11.66214844 17.39496094 -11.33601563 16.70789063 -11 16 C-10.34 16 -9.68 16 -9 16 C-8.71125 15.05125 -8.4225 14.1025 -8.125 13.125 C-6.79418834 9.42830093 -5.24287089 8.22552297 -2.375 5.5625 C0.33988233 3.21559422 0.33988233 3.21559422 0 0 Z " fill="#090909" transform="translate(457,667)"/>
<path d="M0 0 C0 0.66 0 1.32 0 2 C-1.84375 3.33984375 -1.84375 3.33984375 -4.5 4.9375 C-8.13596412 7.17210295 -11.69293189 9.45559659 -15.1875 11.90625 C-15.90099609 12.40648682 -16.61449219 12.90672363 -17.34960938 13.42211914 C-18.77123949 14.42394227 -20.18928966 15.43086691 -21.60351562 16.44311523 C-22.26029297 16.90403564 -22.91707031 17.36495605 -23.59375 17.83984375 C-24.17833984 18.25613037 -24.76292969 18.67241699 -25.36523438 19.10131836 C-27 20 -27 20 -30 20 C-29.54625 19.5875 -29.0925 19.175 -28.625 18.75 C-26.93212913 16.92690829 -26.07658236 15.22493688 -25 13 C-23 11 -23 11 -20 10 C-19.34 10.33 -18.68 10.66 -18 11 C-17.34 10.34 -16.68 9.68 -16 9 C-14.39148708 7.99397885 -12.76394328 7.01814497 -11.125 6.0625 C-8.57047657 4.57172588 -6.14862835 3.11451259 -3.8046875 1.30859375 C-2 0 -2 0 0 0 Z " fill="#0D0D0D" transform="translate(510,632)"/>
<path d="M0 0 C0.99 0.33 1.98 0.66 3 1 C-6.21667896 11.06418967 -15.17708421 20.61605115 -26 29 C-26.66 28.67 -27.32 28.34 -28 28 C-27.34 26.02 -26.68 24.04 -26 22 C-25.34 22.66 -24.68 23.32 -24 24 C-20.88667752 23.33131686 -20.88667752 23.33131686 -19.8125 20.9375 C-19.544375 20.298125 -19.27625 19.65875 -19 19 C-18.34 19 -17.68 19 -17 19 C-15.6962889 17.67487122 -15.6962889 17.67487122 -14.375 15.9375 C-11.44614272 12.37224903 -8.2069778 9.48873619 -4.63671875 6.578125 C-2.74042264 4.99366534 -2.74042264 4.99366534 -2 2 C-1.34 2 -0.68 2 0 2 C0 1.34 0 0.68 0 0 Z " fill="#0B0B0B" transform="translate(509,479)"/>
<path d="M0 0 C0.66 0.33 1.32 0.66 2 1 C1.01 2.485 1.01 2.485 0 4 C-0.66 4 -1.32 4 -2 4 C-2.33 4.66 -2.66 5.32 -3 6 C-3.66666667 7.33333333 -4.33333333 8.66666667 -5 10 C-5.66 10 -6.32 10 -7 10 C-7 10.66 -7 11.32 -7 12 C-12.47619048 17 -12.47619048 17 -15 17 C-13.66106473 11.51036538 -11.09375186 7.79200111 -7 4 C-4.25 2.6875 -4.25 2.6875 -2 2 C-1.34 1.34 -0.68 0.68 0 0 Z " fill="#212121" transform="translate(423,571)"/>
<path d="M0 0 C3 1 3 1 3.875 2.625 C4.431875 3.800625 4.431875 3.800625 5 5 C7.13294278 8.20657169 9.27339767 11.27339767 12 14 C13.35162508 15.98768394 14.68693567 17.9866347 16 20 C16.33 19.01 16.66 18.02 17 17 C18.6627026 19.67478244 19.99983813 21.9995144 21 25 C18 25 18 25 15.80078125 23.015625 C0 5.45368917 0 5.45368917 0 0 Z " fill="#0A0A0A" transform="translate(386,752)"/>
<path d="M0 0 C0.66 0 1.32 0 2 0 C2 0.66 2 1.32 2 2 C1.34 2 0.68 2 0 2 C-0.33 2.99 -0.66 3.98 -1 5 C-2.33333333 6.33333333 -3.66666667 7.66666667 -5 9 C-5 9.66 -5 10.32 -5 11 C-5.86625 11.12375 -5.86625 11.12375 -6.75 11.25 C-9.63869579 12.2128986 -10.89119161 13.82728832 -13 16 C-13.886875 16.495 -14.77375 16.99 -15.6875 17.5 C-18.16633273 18.78099598 -18.16633273 18.78099598 -18.8125 21.1875 C-18.874375 21.785625 -18.93625 22.38375 -19 23 C-20.32 22.67 -21.64 22.34 -23 22 C-21.79304806 18.37914417 -20.56707961 17.6530432 -17.5625 15.375 C-11.40932823 10.59411833 -5.51275034 5.51275034 0 0 Z " fill="#0C0C0C" transform="translate(497,383)"/>
<path d="M0 0 C0.66 0.33 1.32 0.66 2 1 C1.67 1.66 1.34 2.32 1 3 C1.66 3.33 2.32 3.66 3 4 C2.401875 4.268125 1.80375 4.53625 1.1875 4.8125 C-1.04679397 6.02540244 -2.28237004 7.14495964 -4 9 C-4.75023437 9.71027344 -5.50046875 10.42054688 -6.2734375 11.15234375 C-9.30244477 14.31587713 -11.71755446 17.6478404 -14.1875 21.25 C-18.73554356 27.86777178 -18.73554356 27.86777178 -21 29 C-17.21193685 18.12904793 -7.38853839 8.6996569 0 0 Z " fill="#080808" transform="translate(405,587)"/>
<path d="M0 0 C3.1875 -0.5 3.1875 -0.5 7 0 C9.25448223 2.3525032 10.56722673 5.0950645 12 8 C12.40605469 8.73992187 12.81210937 9.47984375 13.23046875 10.2421875 C14.23751972 12.11880808 15.12881113 14.05657868 16 16 C15.67 16.66 15.34 17.32 15 18 C11.66632474 15.77754983 11.26902159 14.75506127 9.75 11.1875 C7.31633332 6.03735523 4.81471149 3.92658934 0 1 C0 0.67 0 0.34 0 0 Z " fill="#060606" transform="translate(431,458)"/>
<path d="M0 0 C0.99 0.33 1.98 0.66 3 1 C1.68 1.99 0.36 2.98 -1 4 C-0.34 4.66 0.32 5.32 1 6 C-1.49064888 6.68707555 -3.37886292 7 -6 7 C-8.02323613 7.95211112 -10.02699884 8.94773272 -12 10 C-11.67 10.66 -11.34 11.32 -11 12 C-12.65 13.32 -14.3 14.64 -16 16 C-16.99 15.01 -17.98 14.02 -19 13 C-15.59928169 9.21659216 -11.75793785 6.77476317 -7.4375 4.1875 C-6.76525391 3.76791016 -6.09300781 3.34832031 -5.40039062 2.91601562 C-3.64829185 1.85988459 -1.82689257 0.9207206 0 0 Z " fill="#0E0E0E" transform="translate(492,480)"/>
<path d="M0 0 C0.66 0.33 1.32 0.66 2 1 C-3.75 6 -3.75 6 -6 6 C-6 6.66 -6 7.32 -6 8 C-7.66279327 9.0064275 -9.32983484 10.00585407 -11 11 C-11.99 12.485 -11.99 12.485 -13 14 C-14.9375 14.625 -14.9375 14.625 -17 15 C-17.99 15.33 -18.98 15.66 -20 16 C-20 16.66 -20 17.32 -20 18 C-24.455 19.485 -24.455 19.485 -29 21 C-25.86059381 17.57519325 -22.36317676 15.17020918 -18.4375 12.75 C-12.08344981 8.75715037 -6.00883206 4.50049258 0 0 Z " fill="#080808" transform="translate(471,405)"/>
<path d="M0 0 C3.61012921 1.80506461 4.51836407 6.76893058 5.94140625 10.40625 C8.97662731 19.95739692 8.97662731 19.95739692 15 27 C14.34 28.32 13.68 29.64 13 31 C0 7.30555556 0 7.30555556 0 0 Z " fill="#0A0A0A" transform="translate(371,720)"/>
<path d="M0 0 C1 3 1 3 0.18310547 5.15722656 C-0.25114746 5.97674805 -0.68540039 6.79626953 -1.1328125 7.640625 C-1.60976563 8.54683594 -2.08671875 9.45304687 -2.578125 10.38671875 C-3.08859375 11.33160156 -3.5990625 12.27648437 -4.125 13.25 C-4.61226562 14.17941406 -5.09953125 15.10882813 -5.6015625 16.06640625 C-8.40817475 21.343733 -11.40093276 26.22761047 -15 31 C-15.33 30.34 -15.66 29.68 -16 29 C-16.66 28.67 -17.32 28.34 -18 28 C-17.09121094 27.65582031 -17.09121094 27.65582031 -16.1640625 27.3046875 C-13.38818 25.63114101 -12.71927482 24.04771365 -11.375 21.125 C-10.97023438 20.26132812 -10.56546875 19.39765625 -10.1484375 18.5078125 C-9.76945313 17.68023438 -9.39046875 16.85265625 -9 16 C-7.31344034 12.46965901 -5.35512206 9.12354129 -3.375 5.75 C-2.74335937 4.67234375 -2.11171875 3.5946875 -1.4609375 2.484375 C-0.73777344 1.25460937 -0.73777344 1.25460937 0 0 Z " fill="#0B0B0B" transform="translate(638,496)"/>
<path d="M0 0 C-0.89460938 0.50789063 -1.78921875 1.01578125 -2.7109375 1.5390625 C-8.38678205 4.76699739 -14.05920598 8.00222929 -19.6875 11.3125 C-20.45449219 11.76238281 -21.22148437 12.21226562 -22.01171875 12.67578125 C-23.93519987 13.95684235 -25.4358388 15.30673344 -27 17 C-27.66 16.34 -28.32 15.68 -29 15 C-22.93295375 10.25736093 -16.76126176 6.1070772 -10 2.4375 C-9.35345459 2.07914062 -8.70690918 1.72078125 -8.04077148 1.3515625 C-3.36555232 -1.12185077 -3.36555232 -1.12185077 0 0 Z " fill="#070707" transform="translate(368,466)"/>
<path d="M0 0 C3.84253242 1.28084414 5.545708 3.68763611 7.8125 6.9375 C8.43769531 7.81277344 9.06289063 8.68804687 9.70703125 9.58984375 C10.13371094 10.38519531 10.56039063 11.18054688 11 12 C10.67 12.99 10.34 13.98 10 15 C8.35 12.69 6.7 10.38 5 8 C3.02 8.33 1.04 8.66 -1 9 C-1 7.68 -1 6.36 -1 5 C-1.2981424 3.65835921 -1.62243192 2.32148827 -2 1 C-1.34 0.67 -0.68 0.34 0 0 Z " fill="#0E0E0E" transform="translate(472,442)"/>
<path d="M0 0 C-1 3 -1 3 -3.28515625 4.16796875 C-4.20167969 4.50441406 -5.11820313 4.84085938 -6.0625 5.1875 C-7.44115234 5.70376953 -7.44115234 5.70376953 -8.84765625 6.23046875 C-9.55792969 6.48441406 -10.26820313 6.73835937 -11 7 C-11.33 6.01 -11.66 5.02 -12 4 C-10.22860196 1.24449193 -8.94631029 -0.61034282 -5.875 -1.875 C-3.43578877 -2.03761408 -2.15973996 -1.07986998 0 0 Z " fill="#151515" transform="translate(575,602)"/>
<path d="M0 0 C0.33 0 0.66 0 1 0 C0.979375 0.763125 0.95875 1.52625 0.9375 2.3125 C0.87057159 5.10185786 0.87057159 5.10185786 2 8 C0.35 8 -1.3 8 -3 8 C-3.33 8.99 -3.66 9.98 -4 11 C-4.66 11 -5.32 11 -6 11 C-6 11.66 -6 12.32 -6 13 C-5.34 13 -4.68 13 -4 13 C-3.67 13.99 -3.34 14.98 -3 16 C-3.99 16 -4.98 16 -6 16 C-6.75654909 12.30131555 -7.20037005 9.60111016 -6 6 C-5.814375 5.2575 -5.62875 4.515 -5.4375 3.75 C-5.293125 3.1725 -5.14875 2.595 -5 2 C-4.34 2.66 -3.68 3.32 -3 4 C-0.94729537 2.15811388 -0.94729537 2.15811388 0 0 Z " fill="#0A0A0A" transform="translate(519,391)"/>
<path d="M0 0 C3.33376285 1.49866403 5.93097416 3.43373036 8.75 5.75 C11.95362777 8.34791971 15.15886012 10.93458268 18.4375 13.4375 C19.05496094 13.91058594 19.67242187 14.38367188 20.30859375 14.87109375 C22.11684231 16.1854093 22.11684231 16.1854093 25 17 C25.33 17.99 25.66 18.98 26 20 C20.71440779 18.37123898 16.74819427 15.02135025 12.4375 11.6875 C11.68275391 11.11837891 10.92800781 10.54925781 10.15039062 9.96289062 C6.22209366 6.94831208 2.88807445 4.08313974 0 0 Z " fill="#080808" transform="translate(415,787)"/>
<path d="M0 0 C0.66 0.33 1.32 0.66 2 1 C2.25 8.625 2.25 8.625 0 12 C-2.625 12.1875 -2.625 12.1875 -5 12 C-5.69965443 10.73581754 -6.38434763 9.46334598 -7.0625 8.1875 C-7.44535156 7.47980469 -7.82820313 6.77210938 -8.22265625 6.04296875 C-9 4 -9 4 -8 1 C-7.34 2.32 -6.68 3.64 -6 5 C-5.34 4.34 -4.68 3.68 -4 3 C-3.855625 3.804375 -3.71125 4.60875 -3.5625 5.4375 C-3.25864751 7.92103706 -3.25864751 7.92103706 -2 9 C-1.34 8.67 -0.68 8.34 0 8 C0 5.36 0 2.72 0 0 Z " fill="#0B0B0B" transform="translate(433,485)"/>
<path d="M0 0 C0 3 0 3 -1 6 C-1.99 6 -2.98 6 -4 6 C-4.33 7.32 -4.66 8.64 -5 10 C-5.66 10 -6.32 10 -7 10 C-7.33 10.66 -7.66 11.32 -8 12 C-8.66 11.67 -9.32 11.34 -10 11 C-10 9.68 -10 8.36 -10 7 C-9.34 7 -8.68 7 -8 7 C-7.79375 6.401875 -7.5875 5.80375 -7.375 5.1875 C-5.49073918 2.18981233 -3.18867916 1.38638224 0 0 Z " fill="#212121" transform="translate(596,577)"/>
<path d="M0 0 C0.66 0.33 1.32 0.66 2 1 C0.71372289 2.17260611 -0.57919783 3.3379283 -1.875 4.5 C-2.59429687 5.1496875 -3.31359375 5.799375 -4.0546875 6.46875 C-6 8 -6 8 -8 8 C-8 8.66 -8 9.32 -8 10 C-9.64429829 11.68873879 -11.31384218 13.35305515 -13 15 C-14.01800576 16.31963709 -15.02248365 17.65009646 -16 19 C-16.66 19.66 -17.32 20.32 -18 21 C-18.66 21 -19.32 21 -20 21 C-15.82425296 11.94921814 -7.67409287 5.99495139 0 0 Z " fill="#070707" transform="translate(337,482)"/>
<path d="M0 0 C2 2 2 2 3 4 C3.66 4.33 4.32 4.66 5 5 C4.67 5.66 4.34 6.32 4 7 C4.66 7.33 5.32 7.66 6 8 C6 8.66 6 9.32 6 10 C7.65 9.01 9.3 8.02 11 7 C10.34 8.32 9.68 9.64 9 11 C8.34 11 7.68 11 7 11 C7.680625 12.11375 8.36125 13.2275 9.0625 14.375 C10.22265625 16.2734375 10.22265625 16.2734375 11 18 C10.67 18.66 10.34 19.32 10 20 C8.31879254 17.61328584 6.6552636 15.21710591 5 12.8125 C4.52304687 12.13896484 4.04609375 11.46542969 3.5546875 10.77148438 C-0.70444915 4.53489142 -0.70444915 4.53489142 0 0 Z " fill="#0C0C0C" transform="translate(465,443)"/>
<path d="M0 0 C4.875 0.875 4.875 0.875 6 2 C6.16994879 5.14405267 6.16018483 8.04680226 5 11 C4.01 11.33 3.02 11.66 2 12 C2 12.99 2 13.98 2 15 C1.01 15 0.02 15 -1 15 C-1.33 13.68 -1.66 12.36 -2 11 C-1.01 11 -0.02 11 1 11 C1.66 9.35 2.32 7.7 3 6 C3.66 6 4.32 6 5 6 C5 5.01 5 4.02 5 3 C3.68 3.33 2.36 3.66 1 4 C0.67 2.68 0.34 1.36 0 0 Z " fill="#0B0B0B" transform="translate(530,422)"/>
<path d="M0 0 C0 3 0 3 -2.40625 5.69921875 C-3.4299968 6.70302243 -4.4616054 7.69885649 -5.5 8.6875 C-6.02464844 9.19861328 -6.54929687 9.70972656 -7.08984375 10.23632812 C-8.38660904 11.49772708 -9.69246117 12.74977212 -11 14 C-13.475 13.01 -13.475 13.01 -16 12 C-14 10 -14 10 -11.375 9.875 C-10.59125 9.91625 -9.8075 9.9575 -9 10 C-8.67 9.01 -8.34 8.02 -8 7 C-7.484375 6.505 -6.96875 6.01 -6.4375 5.5 C-4.65404732 3.98527194 -4.65404732 3.98527194 -5 1 C-4.01 1 -3.02 1 -2 1 C-1.34 0.67 -0.68 0.34 0 0 Z " fill="#0A0A0A" transform="translate(651,551)"/>
<path d="M0 0 C2 1 2 1 3 3 C4.65 2.34 6.3 1.68 8 1 C8.33 1.66 8.66 2.32 9 3 C7.44219668 3.67756882 5.87849904 4.34159457 4.3125 5 C3.00732422 5.556875 3.00732422 5.556875 1.67578125 6.125 C-1.0572002 7.01870488 -3.14700934 7.16449676 -6 7 C-4.60667426 3.63279613 -3.0210714 2.0140476 0 0 Z " fill="#101010" transform="translate(562,605)"/>
<path d="M0 0 C0.66 0.33 1.32 0.66 2 1 C2 1.66 2 2.32 2 3 C-0.18144224 4.15879664 -2.36903017 5.30187378 -4.5625 6.4375 C-5.47612305 6.92573242 -5.47612305 6.92573242 -6.40820312 7.42382812 C-10.65560614 9.60371221 -14.24162667 10.56519369 -19 11 C-16.90808173 8.90808173 -15.37760813 8.15742467 -12.6875 7 C-11.48867188 6.48179687 -11.48867188 6.48179687 -10.265625 5.953125 C-7.85493027 4.93897067 -5.43905054 3.9441486 -3 3 C-3 2.34 -3 1.68 -3 1 C-2.01 0.67 -1.02 0.34 0 0 Z " fill="#0B0B0B" transform="translate(460,520)"/>
<path d="M0 0 C6.33988237 4.43791766 9.9261388 10.51697723 14 17 C13.67 17.66 13.34 18.32 13 19 C11.1875 18.5 11.1875 18.5 9 17 C8.1473751 15.0442367 7.51898354 13.05454639 6.85546875 11.02734375 C5.58916186 8.02636989 3.33629908 6.21333597 1 4 C0.1875 1.6875 0.1875 1.6875 0 0 Z " fill="#080808" transform="translate(683,229)"/>
<path d="M0 0 C3 0 3 0 5 1 C3.42219077 4.71045247 1.09296752 7.29906384 -1.625 10.25 C-2.44226563 11.14203125 -3.25953125 12.0340625 -4.1015625 12.953125 C-4.72804688 13.62859375 -5.35453125 14.3040625 -6 15 C-6.66 14.34 -7.32 13.68 -8 13 C-5.69 11.02 -3.38 9.04 -1 7 C-1.66 5.35 -2.32 3.7 -3 2 C-2.34 1.67 -1.68 1.34 -1 1 C-0.67 0.67 -0.34 0.34 0 0 Z " fill="#0C0C0C" transform="translate(659,536)"/>
<path d="M0 0 C0.85207031 0.16242187 1.70414062 0.32484375 2.58203125 0.4921875 C6.00507635 1.0007542 9.22945403 1.13303263 12.6875 1.125 C14.36392578 1.12886719 14.36392578 1.12886719 16.07421875 1.1328125 C19.06342108 1.13046095 19.06342108 1.13046095 22 0 C22.66 0.66 23.32 1.32 24 2 C15.2478234 4.97946437 8.47843281 4.69967977 0 1 C0 0.67 0 0.34 0 0 Z " fill="#070707" transform="translate(416,530)"/>
<path d="M0 0 C0.81210937 0.33837891 0.81210937 0.33837891 1.640625 0.68359375 C0.320625 1.01359375 -0.999375 1.34359375 -2.359375 1.68359375 C-2.359375 3.00359375 -2.359375 4.32359375 -2.359375 5.68359375 C-2.895625 5.43609375 -3.431875 5.18859375 -3.984375 4.93359375 C-7.62596441 4.55026855 -9.47786103 6.61642069 -12.359375 8.68359375 C-13.019375 8.68359375 -13.679375 8.68359375 -14.359375 8.68359375 C-14.029375 9.67359375 -13.699375 10.66359375 -13.359375 11.68359375 C-14.019375 11.68359375 -14.679375 11.68359375 -15.359375 11.68359375 C-15.359375 10.36359375 -15.359375 9.04359375 -15.359375 7.68359375 C-14.699375 7.68359375 -14.039375 7.68359375 -13.359375 7.68359375 C-13.359375 7.02359375 -13.359375 6.36359375 -13.359375 5.68359375 C-11.61814951 4.64786479 -9.86600905 3.63046855 -8.109375 2.62109375 C-6.64757812 1.76837891 -6.64757812 1.76837891 -5.15625 0.8984375 C-2.359375 -0.31640625 -2.359375 -0.31640625 0 0 Z " fill="#0C0C0C" transform="translate(466.359375,481.31640625)"/>
<path d="M0 0 C0.66 0 1.32 0 2 0 C0.57139081 4.49108752 -1.93077292 7.46169316 -5.125 10.8125 C-5.59292969 11.31458984 -6.06085937 11.81667969 -6.54296875 12.33398438 C-7.68901825 13.56189455 -8.84365311 14.78178215 -10 16 C-10 13.37886292 -9.68707555 11.49064888 -9 9 C-8.34 9 -7.68 9 -7 9 C-6.34 7.35 -5.68 5.7 -5 4 C-3.68 4 -2.36 4 -1 4 C-0.67 2.68 -0.34 1.36 0 0 Z " fill="#0A0A0A" transform="translate(610,541)"/>
<path d="M0 0 C1.9375 1.0625 1.9375 1.0625 4 3 C4.6875 6.5 4.6875 6.5 5 10 C5.33 10.99 5.66 11.98 6 13 C6.66 13 7.32 13 8 13 C8.33 15.64 8.66 18.28 9 21 C5.83273094 18.38839218 4.79005841 15.41874556 3.375 11.625 C2.94960938 10.50351562 2.52421875 9.38203125 2.0859375 8.2265625 C1.15924302 5.47314654 0.48185085 2.85898173 0 0 Z " fill="#0A0A0A" transform="translate(415,464)"/>
<path d="M0 0 C0 4.29931888 -2.427188 6.78707454 -4.875 10.125 C-5.33519531 10.77082031 -5.79539062 11.41664063 -6.26953125 12.08203125 C-9.72829433 16.86414717 -9.72829433 16.86414717 -12 18 C-10 14 -8 10 -6 6 C-5.34 6 -4.68 6 -4 6 C-3.67 4.35 -3.34 2.7 -3 1 C-2.01 0.67 -1.02 0.34 0 0 Z " fill="#070707" transform="translate(676,519)"/>
<path d="M0 0 C4.52534573 1.50844858 5.82325603 4.93325486 8.25 8.875 C8.72179687 9.60847656 9.19359375 10.34195312 9.6796875 11.09765625 C10.12054688 11.80535156 10.56140625 12.51304687 11.015625 13.2421875 C11.42071289 13.8904248 11.82580078 14.53866211 12.24316406 15.20654297 C13 17 13 17 12 20 C9.34177837 17.64314652 8.00224942 15.26440983 6.5 12.0625 C4.9280283 8.72206015 3.2125685 5.94394531 1 3 C0.67 2.01 0.34 1.02 0 0 Z " fill="#0A0A0A" transform="translate(458,461)"/>
<path d="M0 0 C0.66 0 1.32 0 2 0 C3.19334591 3.58003773 3.33543224 6.24315896 3 10 C1.1875 12 1.1875 12 -1 13 C-4 12 -4 12 -5.75 9.5625 C-6.1625 8.716875 -6.575 7.87125 -7 7 C-6.67 6.34 -6.34 5.68 -6 5 C-3 8.75 -3 8.75 -3 11 C-0.792191 9.46172153 -0.792191 9.46172153 1 7 C0.85387105 3.30567489 0.85387105 3.30567489 0 0 Z " fill="#0B0B0B" transform="translate(483,458)"/>
<path d="M0 0 C0.66 0 1.32 0 2 0 C1.49396008 2.16874252 1.00016187 3.99967627 0 6 C1.65 6 3.3 6 5 6 C1.2632157 8.49118953 -0.74451819 8.2065226 -5.1875 8.125 C-6.45980469 8.10695313 -7.73210938 8.08890625 -9.04296875 8.0703125 C-10.50669922 8.03550781 -10.50669922 8.03550781 -12 8 C-8.20960634 5.87000003 -5.34263862 5.83297544 -1 6 C-1.33 5.01 -1.66 4.02 -2 3 C-1.34 2.01 -0.68 1.02 0 0 Z " fill="#0C0C0C" transform="translate(529,400)"/>
<path d="M0 0 C3.32820054 -0.22692276 5.41801336 -0.32162419 8.375 1.3125 C10 3 10 3 10 6 C6.6875 5.8125 6.6875 5.8125 3 5 C1.0625 2.4375 1.0625 2.4375 0 0 Z " fill="#272727" transform="translate(471,819)"/>
<path d="M0 0 C0.66 0 1.32 0 2 0 C1.4474143 3.86809987 -0.25471374 5.33315049 -3 8 C-3.66 9.051875 -4.32 10.10375 -5 11.1875 C-7 14 -7 14 -9.25 14.875 C-9.8275 14.91625 -10.405 14.9575 -11 15 C-8.8912192 11.33111804 -6.56558113 8.0033033 -3.9375 4.6875 C-3.24527344 3.80449219 -2.55304687 2.92148437 -1.83984375 2.01171875 C-1.23269531 1.34785156 -0.62554688 0.68398438 0 0 Z " fill="#090909" transform="translate(609,559)"/>
<path d="M0 0 C0.99 0.33 1.98 0.66 3 1 C-1.14010271 5.54075781 -5.82390176 8.71842138 -11 12 C-11.66 11.67 -12.32 11.34 -13 11 C-10.85224355 8.61360394 -9.32708374 7.12931218 -6.3125 5.9375 C-5.549375 5.628125 -4.78625 5.31875 -4 5 C-3.67 4.01 -3.34 3.02 -3 2 C-2.01 2 -1.02 2 0 2 C0 1.34 0 0.68 0 0 Z " fill="#0B0B0B" transform="translate(477,508)"/>
<path d="M0 0 C1.32 1.32 2.64 2.64 4 4 C2.56988027 4.86646667 1.13059381 5.71781829 -0.3125 6.5625 C-1.51326172 7.27599609 -1.51326172 7.27599609 -2.73828125 8.00390625 C-5 9 -5 9 -8 8 C-5.52260398 3.16907776 -5.52260398 3.16907776 -2.875 2.3125 C-2.25625 2.209375 -1.6375 2.10625 -1 2 C-0.67 1.34 -0.34 0.68 0 0 Z " fill="#1D1D1D" transform="translate(321,499)"/>
<path d="M0 0 C0.33 0 0.66 0 1 0 C1 2.64 1 5.28 1 8 C-0.19625 7.979375 -1.3925 7.95875 -2.625 7.9375 C-6.18004869 7.93117429 -9.50555624 8.30111125 -13 9 C-13 8.34 -13 7.68 -13 7 C-11.01432292 6.51171875 -9.02864583 6.0234375 -7.04296875 5.53515625 C-5.34316798 5.08989295 -3.66698046 4.55566015 -2 4 C-0.79117904 1.99983534 -0.79117904 1.99983534 0 0 Z " fill="#0C0C0C" transform="translate(505,407)"/>
<path d="M0 0 C0.61875 0.268125 1.2375 0.53625 1.875 0.8125 C6.17994393 2.4483787 10.58031552 3.71271326 15 5 C11.72079119 6.95881942 11.23826396 7.05559492 7.25 6.125 C6.1775 5.75375 5.105 5.3825 4 5 C3.67 5.99 3.34 6.98 3 8 C1.58622659 5.36095629 0.62759865 2.92879371 0 0 Z " fill="#090909" transform="translate(493,448)"/>
<path d="M0 0 C0 0.66 0 1.32 0 2 C-0.78246094 2.12117187 -1.56492187 2.24234375 -2.37109375 2.3671875 C-3.38300781 2.53476563 -4.39492188 2.70234375 -5.4375 2.875 C-6.44683594 3.03742188 -7.45617187 3.19984375 -8.49609375 3.3671875 C-9.32238281 3.57601562 -10.14867187 3.78484375 -11 4 C-11.33 4.66 -11.66 5.32 -12 6 C-13.32 5.34 -14.64 4.68 -16 4 C-16 4.66 -16 5.32 -16 6 C-16.99 5.67 -17.98 5.34 -19 5 C-15.91289316 2.34246699 -13.5031193 1.45585846 -9.5 0.8125 C-8.5615625 0.65394531 -7.623125 0.49539062 -6.65625 0.33203125 C-4 0 -4 0 0 0 Z " fill="#080808" transform="translate(611,197)"/>
<path d="M0 0 C0.66 0.66 1.32 1.32 2 2 C0.8553125 3.0828125 0.8553125 3.0828125 -0.3125 4.1875 C-3.05022119 6.80827795 -3.05022119 6.80827795 -4.5 9.75 C-6 12 -6 12 -8.6875 12.8125 C-9.450625 12.874375 -10.21375 12.93625 -11 13 C-9.7260411 10.96166576 -8.38938077 8.96147874 -7 7 C-6.34 7 -5.68 7 -5 7 C-4.731875 6.401875 -4.46375 5.80375 -4.1875 5.1875 C-3.01506533 3.02775192 -1.80630718 1.64209744 0 0 Z " fill="#0C0C0C" transform="translate(493,505)"/>
<path d="M0 0 C0.33 0.66 0.66 1.32 1 2 C1.99 2.33 2.98 2.66 4 3 C3.8125 5.375 3.8125 5.375 3 8 C0.4375 9.3125 0.4375 9.3125 -2 10 C-2 2 -2 2 0 0 Z M1 3 C0.67 3.66 0.34 4.32 0 5 C0.66 5 1.32 5 2 5 C1.67 4.34 1.34 3.68 1 3 Z " fill="#101010" transform="translate(585,586)"/>
<path d="M0 0 C3.59519912 2.62352368 6.15521934 4.90048741 8 9 C7.6875 11.3125 7.6875 11.3125 7 13 C6.34 12.67 5.68 12.34 5 12 C5 10.35 5 8.7 5 7 C4.34 7 3.68 7 3 7 C3 6.34 3 5.68 3 5 C2.01 5 1.02 5 0 5 C-0.66666667 3.66666667 -1.33333333 2.33333333 -2 1 C-1.34 0.67 -0.68 0.34 0 0 Z " fill="#0C0C0C" transform="translate(422,464)"/>
<path d="M0 0 C0 3.73262746 -1.37312669 4.75591589 -3.77734375 7.44140625 C-5.20056353 9.07554777 -5.20056353 9.07554777 -5.9375 11.8125 C-6.288125 12.534375 -6.63875 13.25625 -7 14 C-10.125 14.8125 -10.125 14.8125 -13 15 C-9.09489511 9.49280079 -4.90282356 4.64172645 0 0 Z " fill="#0B0B0B" transform="translate(512,368)"/>
<path d="M0 0 C0.53625 0.37125 1.0725 0.7425 1.625 1.125 C0.635 2.61 0.635 2.61 -0.375 4.125 C0.285 4.785 0.945 5.445 1.625 6.125 C-1.345 5.63 -1.345 5.63 -4.375 5.125 C-4.375 4.465 -4.375 3.805 -4.375 3.125 C-5.695 2.465 -7.015 1.805 -8.375 1.125 C-2.95961538 -1.09038462 -2.95961538 -1.09038462 0 0 Z " fill="#101010" transform="translate(473.375,816.875)"/>
<path d="M0 0 C3.36591866 1.44253657 5.51047079 3.33264727 8 6 C7.34 7.32 6.68 8.64 6 10 C5.34 10 4.68 10 4 10 C4.33 8.68 4.66 7.36 5 6 C3.68 5.34 2.36 4.68 1 4 C1 3.34 1 2.68 1 2 C0.34 1.67 -0.32 1.34 -1 1 C-0.67 0.67 -0.34 0.34 0 0 Z " fill="#0B0B0B" transform="translate(496,419)"/>
<path d="M0 0 C0.99 0.33 1.98 0.66 3 1 C-0.16952847 4.26008643 -3.39937989 7.22237877 -7 10 C-7.66 9.67 -8.32 9.34 -9 9 C-7.625 7.5 -7.625 7.5 -6 6 C-5.34 6 -4.68 6 -4 6 C-4 5.34 -4 4.68 -4 4 C-3.34 4 -2.68 4 -2 4 C-1.34 2.68 -0.68 1.36 0 0 Z " fill="#090909" transform="translate(477,652)"/>
<path d="M0 0 C0.66 0.33 1.32 0.66 2 1 C1.67 1.66 1.34 2.32 1 3 C0.34 3 -0.32 3 -1 3 C-1.33 3.99 -1.66 4.98 -2 6 C-3.62890625 7.38671875 -3.62890625 7.38671875 -5.5625 8.6875 C-6.52349609 9.34298828 -6.52349609 9.34298828 -7.50390625 10.01171875 C-7.99761719 10.33785156 -8.49132812 10.66398438 -9 11 C-9.66 10.67 -10.32 10.34 -11 10 C-5.555 5.05 -5.555 5.05 0 0 Z " fill="#090909" transform="translate(580,590)"/>
<path d="M0 0 C5.32697239 1.45281065 8.36402802 5.08111378 12 9 C7.9666466 9 6.16482462 7.39120082 3 5 C3 4.34 3 3.68 3 3 C2.01 2.67 1.02 2.34 0 2 C0 1.34 0 0.68 0 0 Z " fill="#070707" transform="translate(667,215)"/>
<path d="M0 0 C0.66 0.99 1.32 1.98 2 3 C1.34 3.66 0.68 4.32 0 5 C-0.60311615 6.68761858 -1.13850237 8.40014476 -1.625 10.125 C-1.88539063 11.03507813 -2.14578125 11.94515625 -2.4140625 12.8828125 C-2.60742188 13.58148437 -2.80078125 14.28015625 -3 15 C-3.33 15 -3.66 15 -4 15 C-3.63495936 9.33557626 -2.9445679 4.99296295 0 0 Z " fill="#080808" transform="translate(373,637)"/>
<path d="M0 0 C1.65 1.32 3.3 2.64 5 4 C4.67 5.65 4.34 7.3 4 9 C3.01 8.67 2.02 8.34 1 8 C-0.35439668 5.29120665 -0.06501451 2.99066732 0 0 Z " fill="#111111" transform="translate(447,479)"/>
<path d="M0 0 C0.99 0.33 1.98 0.66 3 1 C3.99 0.67 4.98 0.34 6 0 C6 0.66 6 1.32 6 2 C3.8125 3.5078125 3.8125 3.5078125 1 5.125 C0.071875 5.66382813 -0.85625 6.20265625 -1.8125 6.7578125 C-2.8953125 7.37269531 -2.8953125 7.37269531 -4 8 C-3 5 -3 5 0 3 C-0.66 2.34 -1.32 1.68 -2 1 C-1.34 0.67 -0.68 0.34 0 0 Z " fill="#0C0C0C" transform="translate(452,442)"/>
<path d="M0 0 C0.99 0.33 1.98 0.66 3 1 C-0.82185842 5.10495904 -4.98339837 7.58459921 -10 10 C-6.9630085 6.18206783 -4.11954267 2.71022544 0 0 Z " fill="#0C0C0C" transform="translate(428,565)"/>
<path d="M0 0 C0.66 0 1.32 0 2 0 C2 0.66 2 1.32 2 2 C3.65 1.67 5.3 1.34 7 1 C7 1.99 7 2.98 7 4 C7.66 4.33 8.32 4.66 9 5 C9 5.66 9 6.32 9 7 C5.56072421 5.7580393 2.74792181 4.44259716 0 2 C0 1.34 0 0.68 0 0 Z " fill="#080808" transform="translate(407,523)"/>
<path d="M0 0 C1.98 0 3.96 0 6 0 C6 1.32 6 2.64 6 4 C3.69 4.66 1.38 5.32 -1 6 C-0.67 5.34 -0.34 4.68 0 4 C0.66 4 1.32 4 2 4 C2 3.34 2 2.68 2 2 C1.34 2 0.68 2 0 2 C0 1.34 0 0.68 0 0 Z " fill="#060606" transform="translate(434,506)"/>
<path d="M0 0 C1.52299523 2.93720508 2.80100302 5.9168649 4 9 C3.01 9.33 2.02 9.66 1 10 C-0.625 7.8125 -0.625 7.8125 -2 5 C-1.1875 2.1875 -1.1875 2.1875 0 0 Z " fill="#171717" transform="translate(458,459)"/>
<path d="M0 0 C0.99 0.33 1.98 0.66 3 1 C3.6875 3.0625 3.6875 3.0625 4 5 C4.99 5 5.98 5 7 5 C7.33 5.99 7.66 6.98 8 8 C4.21479387 7.45925627 2.40822445 5.92427254 0 3 C0 2.01 0 1.02 0 0 Z " fill="#090909" transform="translate(499,432)"/>
<path d="M0 0 C0.66 0 1.32 0 2 0 C1.00269864 2.4932534 0.34925469 3.77467439 -1.9375 5.25 C-4 6 -4 6 -7 6 C-7 5.34 -7 4.68 -7 4 C-5.824375 3.566875 -5.824375 3.566875 -4.625 3.125 C-1.90328368 2.15087746 -1.90328368 2.15087746 0 0 Z " fill="#090909" transform="translate(515,436)"/>
<path d="M0 0 C-1.7578125 0.9765625 -3.515625 1.953125 -5.2734375 2.9296875 C-7.1612614 4.00897274 -7.1612614 4.00897274 -9 6 C-9 4.68 -9 3.36 -9 2 C-3.375 -1.125 -3.375 -1.125 0 0 Z " fill="#080808" transform="translate(592,203)"/>
<path d="M0 0 C0.33 0.99 0.66 1.98 1 3 C-0.4375 5.1875 -0.4375 5.1875 -2 7 C-2.33 5.68 -2.66 4.36 -3 3 C-3.66 3 -4.32 3 -5 3 C-4.67 2.34 -4.34 1.68 -4 1 C-1.9375 0.375 -1.9375 0.375 0 0 Z " fill="#181818" transform="translate(487,469)"/>
<path d="M0 0 C0.66 0 1.32 0 2 0 C1.6875 2.875 1.6875 2.875 1 6 C0.01 6.66 -0.98 7.32 -2 8 C-2.33 7.34 -2.66 6.68 -3 6 C-2.06553465 3.96855359 -1.06775224 1.96466413 0 0 Z " fill="#0D0D0D" transform="translate(508,398)"/>
<path d="M0 0 C1.65 1.65 3.3 3.3 5 5 C4.01 5.33 3.02 5.66 2 6 C1.34 5.34 0.68 4.68 0 4 C-0.99 4 -1.98 4 -3 4 C-2.01 2.68 -1.02 1.36 0 0 Z " fill="#0C0C0C" transform="translate(427,442)"/>
<path d="M0 0 C0.99 0.33 1.98 0.66 3 1 C2.67 1.99 2.34 2.98 2 4 C-0.0625 4.6875 -0.0625 4.6875 -2 5 C-2 3.68 -2 2.36 -2 1 C-1.34 0.67 -0.68 0.34 0 0 Z " fill="#222222" transform="translate(566,604)"/>
<path d="M0 0 C0.99 0.33 1.98 0.66 3 1 C3 1.66 3 2.32 3 3 C2.34 3 1.68 3 1 3 C0.67 3.99 0.34 4.98 0 6 C-0.66 5.67 -1.32 5.34 -2 5 C-2 3.68 -2 2.36 -2 1 C-1.34 0.67 -0.68 0.34 0 0 Z " fill="#101010" transform="translate(369,463)"/>
</svg>
